<?xml version="1.0" encoding="utf-8"?>
<!-- Generator: Adobe Illustrator 27.5.0, SVG Export Plug-In . SVG Version: 6.00 Build 0)  -->
<svg xmlns="http://www.w3.org/2000/svg" xmlns:xlink="http://www.w3.org/1999/xlink" version="1.1" id="Layer_1" x="0px" y="0px" viewBox="0 0 595.28 841.89" style="enable-background:new 0 0 595.28 841.89;" xml:space="preserve">
<style type="text/css">
	.st0{fill:#FFFFFF;}
	.st1{fill:#898C8E;}
	.st2{fill:#F59398;}
	.st3{fill:#F6EF76;}
	.st4{fill:#652E8B;}
	.st5{fill:#2C9942;}
	.st6{font-family:'Roboto-Black';}
	.st7{font-size:37.1535px;}
	.st8{fill:#E6E7E8;}
	.st9{fill:#9ED8B3;}
	.st10{font-family:'Roboto-Regular';}
	.st11{font-size:13.5px;}
	.st12{fill:#C31C4A;}
	.st13{fill:none;stroke:#FFFFFF;stroke-width:2.8529;stroke-miterlimit:10;}
	.st14{font-size:25.4385px;}
	.st15{clip-path:url(#XMLID_00000176765882225533736510000017144260918381688475_);fill:#E6E7E5;}
	.st16{clip-path:url(#XMLID_00000176765882225533736510000017144260918381688475_);fill:#0B1014;}
	.st17{fill:#AE876F;}
	.st18{clip-path:url(#XMLID_00000058569135068703678150000008933339226528307595_);fill:#E6E7E5;}
	.st19{clip-path:url(#XMLID_00000058569135068703678150000008933339226528307595_);fill:#0B1014;}
	.st20{fill:#915A58;}
	.st21{fill:#E5E9E7;}
	.st22{fill:#E5E5E5;}
	.st23{fill:#353838;}
	.st24{fill:#131718;}
	.st25{fill:#BBBDBC;}
	.st26{fill:#002832;}
	.st27{fill:#D0D2D1;}
	.st28{fill:#D65B9F;}
	.st29{fill:#997761;}
	.st30{fill:#371D20;}
	.st31{fill:#E470AB;}
	.st32{fill:#9E7860;}
	.st33{fill:#574236;stroke:#574236;stroke-width:1.1131;stroke-miterlimit:10;}
	.st34{clip-path:url(#XMLID_00000111898748669617847260000014333404832192874663_);fill:#21090F;}
	.st35{fill:#371C1F;}
	.st36{fill:#93705B;}
	.st37{fill:#FFCE28;}
	.st38{fill:#574236;}
	.st39{clip-path:url(#XMLID_00000028298619012977411610000007866519990373646524_);fill:#FFFFFF;}
	.st40{clip-path:url(#XMLID_00000028298619012977411610000007866519990373646524_);fill:#EC7FB2;}
	.st41{fill:#E370AB;}
	.st42{fill:#919394;}
	.st43{fill:#DC324B;}
	.st44{fill:#38BFC1;}
	.st45{fill:none;stroke:#BBBDBC;stroke-width:1.8025;stroke-miterlimit:10;}
	.st46{fill:#A7A9AC;}
	.st47{font-size:6.5929px;}
	.st48{font-family:'Roboto-Bold';}
	.st49{fill:#1D1D1B;}
	.st50{fill:#49AF4A;}
	.st51{fill:#CD2656;}
</style>
<rect x="-10.24" y="-8.97" class="st0" width="612.28" height="860.36"/>
<g>
	<path d="M492.14,263.23c-0.04-0.02-0.08-0.04-0.11-0.07c-0.2-1.26-0.33-2.53-0.62-3.76c-0.56-2.36-0.71-4.77-0.99-7.16   c-0.16-1.31-0.11-2.7-0.27-4.01c-0.23-1.96-0.2-3.94-0.52-5.9c-0.34-2.11-0.1-4.25-0.05-6.37c0.04-1.65-0.17-3.29-0.03-4.95   c0.16-1.94,0.16-3.89,0.34-5.84c0.24-2.61,0.34-5.24,0.8-7.82c0.44-2.48,0.32-5,0.97-7.47c0.38-1.44,0.6-2.97,0.88-4.46   c0.48-2.55,0.98-5.11,1.69-7.62c0.32-1.14,0.64-2.29,0.96-3.43c0.55-1.99,1.23-3.93,2.02-5.83c0.13-0.3,0.39-0.47-0.16-0.55   c-0.33-0.05-0.44-0.33-0.36-0.64c0.53-2.01,0.66-4.09,0.91-6.13c0.34-2.78,0.51-5.59,0.74-8.38c0.14-1.68,0.25-3.37,0.2-5.07   c-0.05-1.75,0.09-3.51,0.2-5.25c0.06-0.96-0.04-1.92,0-2.87c0.03-0.75,0.08-1.54,0.04-2.31c-0.14-2.39-0.33-4.78-0.69-7.15   c-0.25-1.64-0.37-3.3-0.44-4.95c-0.06-1.49-0.16-2.98-0.31-4.46c-0.05-0.49-0.27-1.02-0.14-1.46c0.26-0.85-0.15-1.59-0.2-2.37   c-0.08-1.21-0.45-2.4-0.57-3.62c-0.12-1.25-0.48-2.45-0.55-3.7c-0.05-0.85-0.29-1.69-0.42-2.53c-0.17-1.06-0.21-2.15-0.48-3.19   c-0.42-1.62-0.77-3.26-1.13-4.89c-0.13-0.6-0.26-0.99-1.06-1.07c-1.67-0.18-3.37-0.42-4.97-0.91c-1.46-0.45-2.97-0.62-4.44-1.09   c-1.59-0.51-2.97-1.28-4.36-2.11c-1.35-0.81-2.51-1.83-3.51-3.05c-0.89-1.08-1.94-2.02-2.73-3.18c-0.68-1.01-1.37-2.02-2.07-3.02   c-0.94-1.33-1.58-2.84-2.28-4.29c-0.7-1.44-1.3-2.95-2.01-4.39c-0.78-1.59-1.27-3.27-1.7-4.93c-0.46-1.78-0.85-3.6-1.21-5.41   c-0.34-1.72-0.65-3.45-1.12-5.14c-0.85-3.03-1.03-6.15-1.19-9.25c-0.1-1.83-0.18-3.67-0.04-5.51c0.09-1.23-0.05-2.48,0.08-3.7   c0.12-1.13,0.17-2.27,0.19-3.4c0.04-1.58,0.21-3.13,0.42-4.68c0.23-1.67,0.57-3.33,0.83-5c0.23-1.49,0.33-3,0.65-4.47   c0.48-2.21,1.16-4.35,1.54-6.6c0.41-2.49,1.12-4.95,2.25-7.27c0.41-0.85,0.84-1.78,0.72-2.82c-0.04-0.39-0.21-0.76-0.18-1.17   c0.16-1.81,0.34-3.59,0.88-5.35c0.41-1.35,0.9-2.64,1.74-3.74c1.29-1.7,2.71-3.31,4.57-4.43c0.34-0.21,0.7-0.45,1.16-0.24   c0.38,0.17,0.59,0.45,0.58,0.85c-0.05,1.15,0.21,2.29,0.18,3.44c-0.03,1.14,0.08,2.29,0.17,3.44c0.02,0.29-0.03,0.57,0.04,0.89   c0.2,0.94,0.32,1.9,0.35,2.86c0.05,1.24,0.35,2.43,0.47,3.65c0.01,0.13-0.08,0.31,0.14,0.37c0.23,0.06,0.25-0.13,0.36-0.26   c0.99-1.17,1.96-2.37,3.03-3.47c1.12-1.16,1.93-2.55,2.98-3.76c0.9-1.05,1.7-2.2,2.71-3.16c0.66-0.62,1.31-0.42,1.52,0.44   c0.16,0.67,0.22,1.35,0.33,2.03c0.24,1.53,0.49,3.02,0.31,4.61c-0.27,2.29-0.85,4.45-2,6.44c-0.64,1.11-1.3,2.2-2.53,2.8   c-0.34,0.17-0.72,0.44-0.89,0.76c-0.52,0.95-1.04,1.93-1.4,2.95c-0.88,2.54-1.46,5.18-2.13,7.78c-0.88,3.41-1.72,6.84-2.51,10.27   c-0.16,0.69-0.43,1.4-0.31,2.15c0.25-0.43,0.4-0.89,0.64-1.3c1.14-1.95,2.32-3.86,3.82-5.57c1.5-1.72,3.05-3.37,4.92-4.7   c2.62-1.87,5.39-3.47,8.38-4.69c2.43-0.99,4.9-1.65,7.54-1.67c1.6-0.01,3.2,0.12,4.8,0.16c0.97,0.02,1.89,0.3,2.84,0.42   c1.28,0.17,2.45,0.75,3.69,1.1c1.88,0.54,3.8,1.07,5.49,2.05c3.78,2.19,7.4,4.63,10.34,7.93c1.45,1.63,2.81,3.32,3.94,5.2   c0.74,1.23,1.24,2.56,1.77,3.87c0.47,1.16,1.01,2.32,1.08,3.61c0.03,0.49,0.4,0.4,0.71,0.27c2.31-0.97,4.66-1.79,7.09-2.41   c0.49-0.13,0.95-0.35,1.44-0.5c0.39-0.12,0.77-0.16,1.09,0.21c0.29,0.34,0.14,0.66-0.01,0.99c-0.17,0.38-0.27,0.8-0.5,1.12   c-1.24,1.72-1.91,3.77-3.2,5.46c-1.22,1.59-2.27,3.29-3.47,4.91c-0.98,1.32-2.51,2.52-2.16,4.56c0.04,0.21-0.13,0.62-0.18,0.91   c-0.19,1.25-0.72,2.43-0.83,3.69c-0.04,0.02-0.08,0.05-0.11,0.07c0.04,0.04,0.08,0.08,0.12,0.12c0.89,0.89,1.59,1.93,2.29,2.96   c0.49,0.72,1.09,1.34,1.57,2.06c0.22,0.33,0.23,0.92,0.66,0.95c0.27,0.02,0.37-0.54,0.54-0.84c1.26-2.11,2.4-4.28,3.47-6.5   c1.06-2.2,2.17-4.38,2.71-6.79c0.38-1.71,0.9-3.4,1-5.16c0.04-0.04,0.08-0.08,0.11-0.12c-0.04-0.02-0.08-0.04-0.11-0.07   c0.23-0.55,0.23-1.14,0.27-1.73c0.11-1.51,0.2-3.02,0.33-4.52c0.16-1.86-0.26-3.68-0.32-5.52c-0.03-0.88-0.16-1.77-0.32-2.64   c-0.54-2.87-1.69-5.56-2.66-8.29c-0.88-2.48-2-4.86-3.32-7.15c-1.55-2.69-3-5.44-4.76-8c-0.45-0.66-0.93-1.41-1.71-1.74   c-0.95-0.42-1.97-0.75-2.79-1.34c-1.83-1.31-3.1-3.14-3.91-5.19c-0.67-1.71-1.18-3.49-1.14-5.41c0.02-0.98-0.08-1.99-0.09-2.98   c-0.01-0.91,0.17-1.8,0.45-2.67c0.23-0.7,0.61-0.78,1.13-0.26c0.62,0.6,1.21,1.22,1.84,1.82c0.99,0.96,2.1,1.82,2.97,2.87   c1.46,1.75,3.29,3.13,4.78,4.84c0.08,0.08,0.17,0.16,0.25,0.24c0.08-0.16,0.13-0.31-0.07-0.42c-0.46-1.88-0.97-3.74-1.36-5.63   c-0.55-2.65-1.04-5.32-1.51-8c-0.07-0.38-0.21-0.86,0.21-1.19c0.4-0.31,0.79-0.11,1.19,0c0.39,0.11,0.64,0.44,0.99,0.6   c1.6,0.71,3.03,1.68,4.29,2.88c1.27,1.21,2.34,2.6,3.33,4.06c1.26,1.85,2.26,3.81,2.53,6.08c0.05,0.4,0.15,0.75,0.64,0.93   c0.6,0.22,1.04,0.71,1.42,1.22c0.84,1.14,1.71,2.25,2.55,3.4c1.18,1.62,2.19,3.33,3.1,5.1c0.87,1.69,1.6,3.47,2.47,5.16   c1.41,2.73,2.15,5.67,2.81,8.63c0.55,2.49,1.31,4.95,1.51,7.52c0.07,0.92,0.33,1.83,0.48,2.75c0.25,1.58,0.5,3.16,0.63,4.76   c0.18,2.07,0.28,4.15,0.31,6.22c0.04,3.13-0.1,6.26-0.63,9.36c-0.22,1.29-0.34,2.6-0.6,3.88c-0.4,2-0.96,3.94-1.63,5.88   c-0.67,1.94-1.46,3.83-2.27,5.71c-0.64,1.49-1.39,2.91-2.25,4.31c-0.88,1.43-1.66,2.92-2.58,4.33c-1.01,1.54-2.22,2.92-3.3,4.41   c-0.6,0.83-0.77,1.34-0.31,2.35c0.68,1.5,1.38,3.01,1.87,4.6c0.43,1.39,1.16,2.69,1.65,4.07c0.74,2.09,1.53,4.18,2.23,6.29   c0.62,1.85,1.17,3.72,1.72,5.59c0.5,1.68,0.81,3.41,1.29,5.09c0.43,1.51,0.84,3.03,1.24,4.55c0.64,2.4,1.09,4.85,1.57,7.29   c0.34,1.72,0.41,3.49,0.68,5.22c0.3,1.92,0.45,3.86,0.61,5.78c0.14,1.69,0.25,3.4,0.31,5.11c0.11,3.04,0.24,6.09,0.27,9.14   c0.01,1.76-0.23,3.56-0.33,5.33c-0.13,2.18-0.3,4.33-0.81,6.45c-0.25,1.03-0.14,2.3-1.62,2.55c-0.07,0.01-0.13,0.14-0.18,0.22   c-0.8,1.19-1.71,2.27-2.8,3.24c-0.97,0.86-2.01,1.56-3.24,1.92c-2.03,0.59-4.14,0.54-6.22,0.43c-1.31-0.06-2.68-0.14-3.85-0.78   c-0.92-0.51-1.85-0.39-2.71-0.19c-2.37,0.55-4.77,0.76-7.19,0.85c-0.55,0.02-1.12-0.05-1.66,0.02c-1.51,0.19-3.01,0.38-4.53,0.24   c-0.49-0.04-0.77,0.16-0.78,0.67c-0.01,0.2,0.03,0.41-0.01,0.6c-0.53,2.25-0.41,4.53-0.1,6.76c0.36,2.6,1.31,5.07,2.45,7.44   c1.04,2.16,2.13,4.29,3.23,6.42c0.75,1.45,1.49,2.9,2.36,4.28c0.7,1.11,1.24,2.34,2.18,3.3c0.33,0.34,0.47,0.4,0.8-0.04   c0.56-0.75,1.14-1.56,1.88-2.1c1.36-0.99,2.36-2.3,3.5-3.49c0.45-0.47,0.86-0.39,1.23-0.24c0.53,0.22,0.41,0.71,0.21,1.17   c-0.47,1.06-0.89,2.14-1.25,3.24c-0.4,1.19-0.89,2.34-1.28,3.53c-0.23,0.69-0.37,1.39-0.63,2.08c-0.23,0.59-0.36,1.33,0.42,1.81   c1.14,0.69,1.86,1.86,2.88,2.69c0.54,0.44,0.9,1.04,1.44,1.47c0.25,0.2,0.32,0.52,0.1,0.72c-0.35,0.31-0.49,0.74-0.74,1.09   c-1.05,1.46-2.19,2.85-3.45,4.11c-1.65,1.64-2.84,3.65-4.54,5.23c-1.18,1.11-2.3,2.28-3.44,3.43c-0.38,0.39-0.69,0.86-1.09,1.21   c-1.74,1.52-3.43,3.08-4.97,4.81c-0.6,0.67-1.18,1.35-1.82,1.98c-0.32,0.32-0.67,0.52-0.75-0.25c-0.13-1.17-0.2-2.34-0.32-3.51   c-0.27-2.74,0.01-5.48-0.24-8.22c-0.12-1.27,0.09-2.57,0.12-3.86c0.02-1,0.04-2,0.15-2.99c0.06-0.51,0.12-1.03,0.15-1.54   c0.05-1.03-0.22-1.25-1.21-0.97c-0.25,0.07-0.62,0.15-0.69,0c-0.25-0.58-0.84-0.84-1.18-1.35c-0.37-0.57-0.89-1.06-1.33-1.61   c0.02-0.11-0.02-0.15-0.12-0.12c-0.37-0.6-0.96-1.03-1.24-1.69c0.02-0.11-0.02-0.15-0.12-0.12c-0.25-0.24-0.56-0.45-0.74-0.73   c-1.58-2.38-2.93-4.9-4.22-7.45c-0.23-0.46-0.49-0.93-0.71-1.41c-0.25-0.55-0.35-1.17-0.68-1.67c-0.66-0.99-1.04-2.11-1.52-3.18   c-0.48-1.08-0.77-2.24-1.08-3.39c-0.08-0.3-0.03-0.88-0.53-0.82c-0.38,0.05-0.36,0.53-0.36,0.88c0,0.07-0.04,0.14-0.08,0.21   c-0.79,1.7-0.75,3.57-1.12,5.36c-0.24,1.15-0.33,2.33-0.51,3.5c-0.23,1.45-0.51,2.9-0.7,4.35c-0.24,1.91-0.4,3.83-0.62,5.74   c-0.26,2.29-0.54,4.58-0.61,6.88c-0.04,0.04-0.08,0.08-0.11,0.12c0.04,0.02,0.08,0.04,0.11,0.07c0,0.19,0,0.38,0,0.57   c-0.04,0.04-0.08,0.08-0.11,0.12c0.04,0.02,0.08,0.04,0.11,0.07c0,0.19,0,0.38,0,0.57c-0.04,0.04-0.08,0.08-0.11,0.12   c0.04,0.02,0.08,0.04,0.11,0.07c-0.27,0.42-0.04,0.84-0.01,1.27c0.19,2.58,0.34,5.17,0.47,7.75c0.06,1.27,0.19,2.53,0.35,3.78   c0.29,2.25,0.24,4.54,0.7,6.77c0.19,0.94,0.13,1.93,0.36,2.86c0.4,1.61,0.53,3.27,0.85,4.89c0.33,1.73,0.46,3.5,0.82,5.23   c0.34,1.67,0.87,3.3,1.03,5.01c0.03,0.31,0.13,0.81,0.68,0.63c0.53-0.17,1.1-0.36,1.52-0.65c1.33-0.89,2.79-1.5,4.22-2.15   c0.75-0.34,1.41-0.86,2.17-1.17c0.35-0.14,0.68-0.16,0.94,0.18c0.18,0.23,0.2,0.46,0.01,0.68c-0.33,0.37-0.64,0.77-0.99,1.11   c-1.05,1.01-1.92,2.16-2.83,3.28c-0.89,1.1-1.67,2.28-2.36,3.51c-0.49,0.87-1.44,1.78-0.4,2.9c0.04,0.04,0.01,0.15,0.03,0.22   c0.7,2.47,1.41,4.95,2.3,7.36c0.25,0.67,0.13,0.94-0.58,1.11c-0.78,0.19-1.55,0.4-2.34,0.55c-1.69,0.33-3.37,0.74-5.06,1.11   c-1.6,0.35-3.24,0.55-4.81,0.97c-2.45,0.65-4.97,0.92-7.42,1.55c-1.92,0.49-3.95,0.67-5.94,0.77c-1.84,0.09-3.62,0.44-5.44,0.64   c-0.42,0.05-0.81-0.02-1.19-0.28c-0.39-0.27-0.5-0.44-0.11-0.83c1.22-1.22,2.4-2.49,3.6-3.74c0.24-0.25,0.45-0.51,0.67-0.77   c0.11,0.02,0.15-0.02,0.12-0.12c0.15-0.22,0.27-0.48,0.47-0.66c1.15-1.06,1.94-2.43,2.95-3.61c1.07-1.26,1.9-2.72,2.91-4.04   c0.27-0.35,0.34-0.61,0.19-0.96c-0.77-1.79-1.05-3.72-1.64-5.57c-0.39-1.22-0.56-2.51-0.95-3.74c-0.23-0.72-0.45-1.45-0.56-2.18   c-0.31-2.02-0.5-4.07-1.22-6.01C492.06,263.31,492.1,263.27,492.14,263.23z M490.45,294.19c1.12-0.08,2.24-0.18,3.36-0.3   c2.46-0.26,4.88-0.72,7.3-1.22c2.17-0.45,4.34-0.89,6.51-1.35c1.01-0.21,2-0.48,3.01-0.67c1.86-0.35,3.68-0.91,5.56-1.14   c0.91-0.11,0.97-0.22,0.7-1.09c-0.64-2.04-1.26-4.08-1.86-6.13c-0.06-0.2-0.05-0.42-0.28-0.46c-0.23-0.04-0.23,0.23-0.32,0.36   c-0.25,0.33-0.47,0.69-0.64,1.06c-0.2,0.46-0.57,0.81-0.99,0.75c-0.3-0.04-0.59-0.48-0.79-0.81c-0.73-1.19-1.44-2.38-2.1-3.6   c-0.23-0.44-0.59-0.45-0.87-0.34c-1.2,0.47-2.49,0.54-3.73,0.76c-1.92,0.34-3.85,0.73-5.82,0.74c-0.66,0-1.3,0.1-1.61,0.86   c-0.25,0.61-0.87,0.93-1.25,1.44c-0.97,1.31-1.88,2.66-2.83,3.99c-0.89,1.25-1.91,2.38-2.89,3.55c-1.12,1.33-2.32,2.58-3.53,3.83   c-0.05,0.07-0.1,0.13-0.15,0.2c0.12,0.08,0.21,0.03,0.26-0.09C488.5,294.59,489.46,294.25,490.45,294.19z M490.54,103.2   c0.54,1.39,0.88,2.85,1.4,4.25c0.43,1.16,0.74,2.34,1.13,3.51c0.7,2.08,1.05,4.25,1.53,6.38c0.58,2.58,1.25,5.14,1.77,7.73   c0.32,1.61,0.41,3.26,0.65,4.88c0.19,1.32,0.51,2.62,0.67,3.94c0.16,1.3,0.48,2.58,0.55,3.9c0.08,1.69,0.33,3.36,0.41,5.05   c0.05,1.03,0.03,2.05,0.16,3.08c0.26,2.07,0.31,4.17,0.65,6.22c0.43,2.58,0.36,5.18,0.4,7.76c0.03,1.7,0.07,3.4-0.08,5.11   c-0.11,1.24-0.11,2.5-0.15,3.75c-0.04,1.02-0.05,2.05-0.12,3.07c-0.06,1.08-0.21,2.15-0.34,3.23c-0.11,0.94-0.1,1.89-0.16,2.84   c-0.15,2.55-0.49,5.06-0.9,7.57c-0.14,0.89-0.04,1.01,0.88,1.18c2.62,0.49,5.22,1.02,7.84,1.48c0.79,0.14,1.6,0.1,2.4,0.18   c0.44,0.04,0.48-0.19,0.5-0.52c0.14-1.61,0.37-3.21,0.73-4.78c0.37-1.63,0.91-3.2,1.61-4.72c0.79-1.71,1.75-3.31,2.92-4.78   c0.51-0.64,0.97-1.32,1.54-1.91c1.3-1.36,2.53-2.79,4.06-3.91c0.85-0.63,1.72-1.24,2.64-1.76c3.09-1.75,6.45-2.74,9.9-3.51   c2.09-0.47,4.17-0.46,6.26-0.39c1.51,0.05,3.01,0.43,4.5,0.71c2.4,0.45,4.61,1.42,6.77,2.46c1.52,0.73,3.09,1.49,4.28,2.7   c1.72,1.74,3.38,3.53,4.68,5.65c0.96,1.55,1.68,3.16,2.17,4.92c0.29,1.04,0.55,2.13,1.06,3.13c0.39-1.01,0.59-2.03,0.72-3.06   c0.1-0.78,0.25-1.58,0.26-2.37c0.02-1.29,0.14-2.57,0.21-3.85c0.13-2.13,0.11-4.24,0.04-6.37c-0.08-2.62-0.03-5.25-0.27-7.85   c-0.27-3.08-0.28-6.19-0.97-9.25c-0.28-1.24-0.23-2.56-0.48-3.83c-0.21-1.08-0.5-2.16-0.66-3.25c-0.55-3.76-1.81-7.35-2.57-11.06   c-0.23-1.12-0.69-2.16-0.96-3.25c-0.37-1.48-0.69-2.97-1.27-4.38c-0.6-1.45-0.97-2.97-1.51-4.45c-0.82-2.24-1.74-4.44-2.62-6.65   c-0.64-1.59-1.32-3.17-2-4.75c-0.13-0.29-0.21-0.59-0.33-1.18c-0.59,0.66-1.07,1.17-1.52,1.7c-1.76,2.07-3.87,3.67-6.22,5.01   c-1.06,0.61-2.03,0.26-3-0.02c-2.09-0.59-3.66-1.91-4.92-3.65c-0.9-1.24-1.74-2.51-2.36-3.92c-0.51-1.15-0.67-2.41-1.16-3.57   c-0.15-0.35,0.19-0.56,0.38-0.71c1.16-0.95,2.17-2.04,3.23-3.09c1.25-1.23,2.29-2.62,3.47-3.88c0.74-0.79,1.35-1.71,1.99-2.59   c0.26-0.36,0.01-0.76-0.16-1.04c-0.57-0.9-1.22-1.75-1.83-2.62c-0.57-0.8-1.14-1.6-1.7-2.4c-0.09-0.12-0.16-0.28-0.33-0.25   c-0.16,0.03-0.24,0.15-0.27,0.32c-0.23,1.44-1.01,2.66-1.75,3.86c-0.87,1.4-1.93,2.7-3.17,3.81c-1.81,1.6-3.62,3.21-5.6,4.62   c-2.13,1.51-4.44,2.67-6.81,3.7c-1.39,0.6-2.86,1.02-4.34,1.41c-1.76,0.46-3.54,0.83-5.33,1.19c-1.28,0.26-2.58,0.39-3.88,0.5   c-0.82,0.07-1.66-0.02-2.45,0.24c-0.76,0.25-1.49-0.04-2.23,0c-2.06,0.09-4.06-0.07-6-0.86c-0.46-0.19-1.02-0.08-1.53-0.24   c-0.89-0.28-1.67-0.81-2.51-1.16C490.21,102.72,490.46,102.98,490.54,103.2z M534.81,81.28c-0.22,0.26-0.4,0.64-0.83,0.54   c-0.36-0.09-0.51-0.39-0.69-0.71c-0.88-1.64-1.65-3.34-2.61-4.95c-0.93-1.56-1.96-3.09-2.68-4.78c-0.24-0.56-0.4-1.15-0.63-1.71   c-0.22-0.54-0.05-0.86,0.4-1.18c0.72-0.5,1.57-0.68,2.35-1.04c1.59-0.72,3.3-1.15,4.87-1.94c0.54-0.28,0.68-0.64,0.56-1.13   c-0.56-2.35-1.36-4.62-2.61-6.7c-1.24-2.06-2.76-3.88-4.38-5.66c-2.23-2.44-4.84-4.31-7.61-6.07c-1.81-1.15-3.68-2.1-5.72-2.68   c-1.61-0.46-3.11-1.24-4.77-1.52c-1.61-0.28-3.21-0.6-4.86-0.61c-0.87,0-1.75-0.05-2.62-0.1c-0.97-0.06-1.96,0.2-2.95,0.32   c-2.2,0.29-4.19,1.24-6.2,2.09c-1.3,0.55-2.55,1.26-3.76,2.04c-1.8,1.15-3.55,2.35-5.07,3.85c-1.55,1.53-3,3.13-4.23,4.95   c-1.28,1.9-2.23,3.94-3.17,6c-0.22,0.48-0.39,0.99-0.6,1.54c0.8-0.55,1.32-1.24,1.67-2.05c0.2-0.46,0.56-0.61,0.97-0.46   c0.98,0.36,2.01,0.24,3.01,0.41c2.76,0.47,5.61,0.26,8.35,0.92c0.35,0.08,0.68,0.23,0.82,0.58c0.69,1.74,1.55,3.39,2.58,4.95   c0.6,0.91,0.14,1.68-0.2,2.42c-1.06,2.31-2.43,4.45-3.81,6.58c-0.74,1.14-1.43,2.3-2.11,3.48c-0.52,0.91-0.79,1.16-1.7,0.86   c-1.03-0.34-2.08-0.13-3.09-0.33c-1.19-0.24-2.38-0.23-3.58-0.24c-0.41,0-0.65-0.29-0.77-0.61c-0.67-1.85-1.56-3.6-2.47-5.35   c-0.35-0.68-0.64-1.4-1.12-2c-0.41,0.24-0.54,0.59-0.53,1.07c0.03,1.34,0.04,2.69,0,4.03c-0.04,1.44,0.33,2.81,0.69,4.16   c0.3,1.17,0.46,2.37,0.83,3.52c0.41,1.26,0.86,2.5,1.5,3.68c0.92,1.7,1.61,3.53,2.73,5.13c1.59,2.27,3.3,4.42,5.56,6.07   c2.12,1.54,4.42,2.82,6.88,3.65c2.12,0.71,4.32,1.19,6.61,1.18c4-0.01,7.94-0.44,11.84-1.36c2.44-0.58,4.89-1.16,7.19-2.16   c2.32-1.01,4.49-2.34,6.61-3.74c1.19-0.78,2.15-1.83,3.27-2.7c1.62-1.25,3.03-2.74,4.2-4.41c1.15-1.64,1.91-3.46,2.33-5.45   c0.26-1.25,0.74-2.46,1-3.72c0.02-0.11-0.01-0.23-0.02-0.45C535.64,80.04,535.28,80.71,534.81,81.28z M529.63,164.55   c-3.9,1.1-7.39,2.95-10.29,5.78c-1.74,1.7-3.4,3.51-4.68,5.59c-1.18,1.91-2.1,3.94-2.73,6.13c-0.63,2.19-0.95,4.41-1.1,6.64   c-0.1,1.53-0.04,3.11,0.18,4.67c0.15,1.05,0.24,2.11,0.35,3.17c0.17,1.72,0.59,3.38,0.97,5.06c0.68,2.91,1.69,5.73,2.6,8.57   c0.52,1.62,1.42,3.12,2.05,4.71c0.81,2.05,2.01,3.9,2.95,5.89c0.65,1.38,1.6,2.64,2.58,3.82c1.17,1.41,2.12,2.99,3.43,4.29   c0.49,0.48,0.95,0.49,1.45,0.41c1.72-0.26,3.45-0.55,5.15-0.9c1.35-0.28,2.57-0.92,3.83-1.45c0.61-0.26,0.05-0.64-0.05-0.7   c-0.55-0.3-0.63-0.93-1.04-1.31c-0.2-0.19-0.17-0.41,0.07-0.62c1.16-1.02,2.19-2.16,3.19-3.33c0.23-0.26,0.28-0.49,0.08-0.8   c-1.34-1.98-2.47-4.08-3.67-6.15c-1.21-2.08-2.15-4.28-3.35-6.36c-0.88-1.53-1.54-3.18-2.12-4.87c-0.4-1.15-0.74-2.32-1.08-3.49   c-0.27-0.94-0.33-1.95-0.37-2.94c-0.06-1.68-0.09-3.36,0.14-5.04c0.25-1.8,0.3-3.65,1.04-5.34c1.18-2.68,3.01-4.71,5.95-5.57   c1.65-0.49,3.22-0.41,4.73,0.37c1.01,0.52,1.77,1.36,2.49,2.22c1,1.19,1.96,2.39,2.5,3.89c0.14,0.38,0.73,0.47,1.13,0.64   c2.42,1.04,4.99,1.04,7.55,0.89c1.45-0.09,2.97-0.27,4.18-1.22c1.3-1.03,2.52-2.15,3.53-3.49c0.47-0.62,0.57-1.22,0.35-1.99   c-0.57-1.97-1.17-3.92-1.96-5.82c-0.73-1.75-2.04-3.06-3.13-4.54c-2.2-2.99-5.24-4.79-8.66-6.06c-1.12-0.42-2.17-1-3.36-1.21   c-2.36-0.41-4.69-1.05-7.12-0.89C534.69,163.03,532.17,163.84,529.63,164.55z M508.69,277.48c-0.56-1.01-0.35-1.49,0.78-1.9   c0.83-0.3,1.64-0.62,2.46-0.95c0.2-0.08,0.35-0.13,0.26-0.51c-0.39-1.62-0.8-3.26-1.06-4.9c-0.34-2.11-0.65-4.23-1.01-6.33   c-0.37-2.22-0.71-4.45-1.06-6.67c-0.28-1.8-0.49-3.62-0.58-5.45c-0.09-1.92-0.42-3.82-0.56-5.73c-0.07-0.95-0.1-1.9-0.16-2.85   c-0.17-2.53-0.32-5.07-0.47-7.6c-0.08-1.43,0.27-2.82,0.35-4.23c0.08-1.44,0.34-2.85,0.43-4.29c0.12-1.87,0.43-3.72,0.68-5.58   c0.2-1.51,0.43-3.02,0.65-4.53c0.21-1.43,0.4-2.85,0.63-4.28c0.14-0.87,0.35-1.73,0.47-2.59c0.18-1.19,0.65-2.31,1.08-3.39   c0.38-0.95,0.23-1.75-0.03-2.58c-0.47-1.46-0.76-2.95-1.08-4.44c-0.29-1.37-0.5-2.78-0.56-4.17c-0.06-1.35-0.32-2.69-0.2-4.04   c0.06-0.63-0.09-0.93-0.82-0.97c-2.09-0.13-4.12-0.7-6.19-0.99c-1-0.14-1.97-0.39-2.94-0.63c-0.73-0.18-0.98,0.24-1.26,0.78   c-1.15,2.17-1.72,4.55-2.46,6.87c-0.83,2.62-1.34,5.3-1.93,7.98c-0.67,3.04-1.17,6.11-1.89,9.14c-0.24,1-0.23,2.07-0.35,3.11   c-0.2,1.82-0.31,3.65-0.6,5.46c-0.12,0.76-0.11,1.55-0.17,2.32c-0.18,2.34-0.4,4.68-0.53,7.03c-0.08,1.47-0.02,2.94,0.04,4.42   c0.1,2.37-0.08,4.76,0.06,7.13c0.13,2.2,0.19,4.41,0.55,6.6c0.13,0.81,0.05,1.65,0.16,2.48c0.22,1.65,0.37,3.3,0.58,4.96   c0.23,1.74,0.53,3.46,0.81,5.18c0.22,1.32,0.61,2.62,0.89,3.93c0.39,1.8,0.6,3.63,1.03,5.42c0.46,1.93,0.95,3.84,1.5,5.75   c0.27,0.94,0.56,1.87,0.78,2.82c0.08,0.35,0.23,0.44,0.55,0.45c1.73,0.08,3.42-0.29,5.12-0.4c2.17-0.14,4.2-1,6.41-1.13   C508.93,277.9,508.8,277.7,508.69,277.48z M544.96,24.88c-1.77,1.24-3.54,2.48-5.26,3.79c-0.43,0.33-0.82,0.77-1.22,1.17   c-0.29,0.29-0.21,0.53,0.01,0.85c2.16,3.14,3.99,6.5,5.88,9.8c1.24,2.16,2.2,4.47,3.05,6.82c0.83,2.29,1.77,4.56,2.32,6.93   c0.31,1.31,0.45,2.67,0.56,4.04c0.13,1.73,0.49,3.45,0.4,5.2c-0.1,2.16-0.41,4.3-0.56,6.45c-0.16,2.28-0.79,4.45-1.3,6.65   c-0.42,1.8-1.21,3.5-2.06,5.15c-1.05,2.04-2.02,4.13-3.11,6.14c-1.43,2.63-3.04,5.13-4.99,7.44c-1.47,1.74-3.17,3.26-4.61,5.01   c-0.03,0.04-0.07,0.07-0.11,0.09c-0.53,0.35-1.29,0.85-1.26,1.29c0.06,0.75,0.24,1.57,0.63,2.29c0.25,0.47,0.38,1.01,0.63,1.48   c1.16,2.16,2.43,4.24,4.6,5.53c0.92,0.55,1.99,0.79,3.03,1.03c0.35,0.08,0.66-0.34,1.02-0.49c0.93-0.4,1.68-1.13,2.49-1.75   c1.86-1.43,3.34-3.23,5.07-4.78c0.74-0.67,1.27-1.5,1.85-2.27c0.89-1.2,1.89-2.33,2.66-3.62c0.5-0.84,1.05-1.65,1.56-2.48   c1.51-2.45,2.78-5.02,3.91-7.67c0.83-1.96,1.51-3.98,2.1-6c0.49-1.68,0.96-3.41,1.05-5.21c0.05-1.1,0.35-2.19,0.47-3.29   c0.14-1.31,0.24-2.61,0.27-3.92c0.03-1.37,0.25-2.76,0.1-4.11c-0.13-1.16-0.04-2.33-0.21-3.49c-0.15-1.03-0.07-2.1-0.18-3.16   c-0.18-1.77-0.34-3.54-0.74-5.27c-0.25-1.11-0.23-2.26-0.45-3.38c-0.27-1.42-0.66-2.82-0.95-4.23c-0.51-2.47-1.06-4.93-1.97-7.28   c-0.77-1.97-1.64-3.9-2.63-5.78c-0.58-1.1-1.1-2.23-1.74-3.31c-0.97-1.65-1.96-3.28-3.11-4.8c-0.63-0.83-1.29-1.64-2.02-2.39   c-0.2-0.21-0.42-0.3-0.62-0.49C547.86,23.39,546.32,23.93,544.96,24.88z M462.22,67.04c0.02,1.7,0.17,3.39,0.25,5.08   c0.07,1.54,0.18,3.07,0.37,4.59c0.13,1.09,0.37,2.18,0.6,3.26c0.59,2.87,1.17,5.74,1.82,8.6c0.37,1.62,0.81,3.22,1.4,4.79   c1.59,4.23,3.5,8.27,5.97,12.05c1.11,1.7,2.37,3.26,3.76,4.7c1.95,2.02,4.13,3.85,6.9,4.6c2.38,0.65,4.76,1.39,7.25,1.65   c0.7,0.07,1.46,0.16,2.16,0.38c0.28,0.09,0.52,0.13,0.47-0.42c-0.16-1.78-0.83-3.43-1.23-5.14c-0.33-1.43-0.83-2.85-1.36-4.24   c-0.29-0.76-0.5-1.55-0.68-2.34c-0.22-0.95-0.68-1.81-1.06-2.7c-0.27-0.62-1.02-0.78-1.55-1.15c-1.33-0.94-2.64-1.9-3.8-3.04   c-1.88-1.85-3.45-3.96-4.78-6.23c-1.22-2.07-2.19-4.27-2.95-6.54c-0.59-1.77-0.89-3.66-1.34-5.48c-0.47-1.89-0.48-3.8-0.5-5.69   c-0.03-2.71,0.31-5.41,0.95-8.09c0.6-2.53,1.01-5.11,1.31-7.71c0.21-1.81,0.54-3.64,1.02-5.42c0.39-1.43,0.68-2.89,1.05-4.33   c0.45-1.8,1.01-3.57,1.43-5.38c0.41-1.73,0.82-3.47,1.43-5.15c0.32-0.9,0.72-1.76,1.17-2.6c0.27-0.51,0.19-0.87-0.25-1.12   c-1.22-0.71-2.46-1.39-3.71-2.05c-0.63-0.33-1.3-0.57-1.89-0.99c-0.67-0.48-1.48-0.51-2.24-0.65c-1.46-0.27-2.92-0.54-4.43-0.5   c-0.66,0.02-1.04,0.19-1.36,0.84c-1.12,2.28-1.95,4.68-2.33,7.15c-0.45,2.9-1.37,5.67-1.87,8.54c-0.38,2.2-0.57,4.43-0.94,6.63   c-0.49,2.87-0.79,5.74-0.76,8.65c0.01,0.56-0.2,1.13-0.28,1.71C462.22,64.55,462.21,65.79,462.22,67.04z M531.39,247.37   c1.06-1.23,2.36-2.23,3.56-3.33c0.76-0.7,1.41-1.53,2.13-2.27c0.71-0.73,1.41-1.46,2.14-2.18c0.87-0.85,1.67-1.8,2.42-2.79   c0.72-0.95,1.56-1.82,2.37-2.69c1.14-1.23,2.17-2.55,3.15-3.91c0.41-0.56,0.12-0.9-0.29-1.18c-1.25-0.85-2-2.25-3.31-3.03   c-0.08-0.04-0.11-0.16-0.17-0.24c-0.67,1.17-0.9,2.5-1.4,3.73c-0.41,1-0.9,1.15-1.74,0.44c-0.62-0.53-1.31-1.01-1.86-1.61   c-0.56-0.61-0.91-0.72-1.71-0.29c-1.75,0.94-3.66,1.52-5.63,1.88c-0.73,0.13-1.69,0.09-2.09,0.53c-0.34,0.38,0.06,1.36-0.05,2.05   c-0.25,1.56-0.13,3.14-0.23,4.7c-0.16,2.54-0.15,5.1,0,7.64c0.07,1.14-0.06,2.28,0.09,3.41c0.07,0.51,0.26,1.01,0.25,1.57   C529.67,248.84,530.65,248.23,531.39,247.37z M486.7,78.34c0.25,0.06,0.47,0.01,0.63-0.26c0.8-1.35,1.56-2.72,2.45-4.01   c1.03-1.5,1.72-3.19,2.87-4.63c0.5-0.63,0.73-1.49,1.08-2.24c0.11-0.22-0.05-0.36-0.14-0.51c-0.93-1.41-1.9-2.8-2.48-4.41   c-0.11-0.31-0.33-0.51-0.69-0.58c-1.8-0.31-3.6-0.47-5.43-0.47c-0.93,0-1.86-0.22-2.79-0.35c-0.51-0.07-1.03-0.12-1.53-0.24   c-1.4-0.35-1.69,0.96-2.37,1.61c-0.77,0.74-1.37,1.65-2.04,2.5c-0.26,0.32-0.21,0.76-0.24,1.11c-0.06,0.92-0.23,1.83-0.22,2.76   c0.01,0.46,0.33,0.64,0.48,0.96c0.55,1.15,1.04,2.33,1.68,3.42c0.8,1.38,1.38,2.85,2.02,4.29c0.22,0.49,0.62,0.52,1.02,0.58   c0.37,0.06,0.75,0.01,1.13,0.01C483.66,77.97,485.2,77.99,486.7,78.34z M541.92,64.13c-2,0.6-3.96,1.37-5.88,2.18   c-1.86,0.78-3.76,1.46-5.6,2.28c-0.49,0.22-0.99,0.41-1.49,0.59c-0.45,0.16-0.55,0.41-0.33,0.83c0.69,1.31,1.37,2.63,2.04,3.95   c0.64,1.26,1.56,2.35,2.09,3.68c0.28,0.71,0.83,1.31,1.28,1.95c0.35,0.5,0.56,0.14,0.79-0.14c0.71-0.88,1.19-1.92,1.83-2.84   c1.47-2.08,3.02-4.11,4.5-6.19c1.61-2.27,2.95-4.71,4.29-7.14c0.03-0.05,0.04-0.11,0.09-0.26   C544.28,63.41,543.1,63.78,541.92,64.13z M538.65,11.28c0.46,2.41,0.95,4.81,1.47,7.2c0.26,1.2,0.63,2.38,0.95,3.56   c0.24,0.9,0.47,1.8,0.75,2.69c0.21,0.67,0.51,0.74,1.06,0.25c0.56-0.5,1.25-0.81,1.82-1.26c1-0.78,2.21-1.07,3.31-1.62   c0.35-0.18,0.58-0.26,0.5-0.8c-0.42-2.71-1.81-4.92-3.43-7.05c-0.97-1.28-2.01-2.49-3.24-3.51c-1.05-0.86-2.24-1.5-3.53-2.18   C538.29,9.55,538.49,10.42,538.65,11.28z M530,21.16c0.44,1.69,1.1,3.31,2.1,4.76c0.83,1.2,1.87,2.21,3.14,2.94   c0.46,0.27,1.03,0.31,1.5,0.6c0.3,0.18,0.53-0.16,0.7-0.31c1.04-0.92,2.1-1.81,3.26-2.59c0.32-0.22,0.34-0.42,0.08-0.78   c-1.35-1.81-2.61-3.65-4.37-5.14c-1.05-0.89-2.01-1.91-2.92-2.97c-0.98-1.14-2.17-2.11-3.26-3.16c-0.37-0.36-0.47,0.06-0.49,0.21   c-0.05,0.45-0.02,0.9-0.02,1.25C529.59,17.79,529.56,19.5,530,21.16z M476.35,26.91c-0.01-2.23-0.52-4.41-0.6-6.61   c-0.05-1.31-0.45-2.64-0.09-3.98c0.16-0.57-0.18-1.17-0.16-1.78c0.01-0.29-0.22-0.39-0.52-0.15c-1.19,0.91-2.23,1.99-3.2,3.11   c-1.36,1.58-2.16,3.47-2.51,5.51c-0.28,1.62-0.61,3.26-0.26,4.93c0.1,0.48,0.26,0.65,0.76,0.66c2.29,0.04,4.53,0.39,6.92,1.08   C476.35,28.68,476.35,27.77,476.35,26.91z M534.78,188.43c2.42-0.11,4.86-0.16,7.26-0.59c0.46-0.08,0.88-0.32,1.37-0.3   c0.2,0.01,0.41-0.14,0.28-0.4c-0.63-1.28-1.35-2.5-2.37-3.51c-0.62-0.61-1.12-1.34-1.95-1.75c-1.84-0.9-3.61-0.71-5.3,0.32   c-2.39,1.46-3.86,3.58-4.38,6.38C531.42,188.82,533.1,188.5,534.78,188.43z M484.47,22.56c-1.04,1.28-2.04,2.59-3.15,3.81   c-1.02,1.12-2,2.28-2.99,3.43c-0.42,0.48-0.3,0.7,0.32,0.92c1.16,0.42,2.18,1.11,3.24,1.73c0.4,0.23,0.81,0.45,1.14,0.8   c0.32,0.33,0.61,0.22,0.99-0.05c1.27-0.89,1.89-2.22,2.62-3.52c1.27-2.25,1.55-4.67,1.41-7.17c-0.07-1.19-0.33-2.37-0.52-3.69   C486.33,20.06,485.45,21.35,484.47,22.56z M544.31,216.85c-0.96,0.87-1.77,1.9-2.7,2.77c-0.74,0.69-1.35,1.5-2.12,2.17   c-0.74,0.64-1.42,1.4-2.06,2.16c-0.09,0.1-0.12,0.29-0.26,0.34c-0.61,0.23-0.53,0.68-0.2,0.99c1.24,1.2,2.46,2.41,3.85,3.43   c0.3,0.22,0.3-0.07,0.36-0.24c0.23-0.69,0.47-1.38,0.7-2.07c0.45-1.4,1-2.78,1.32-4.21c0.43-1.96,1.32-3.75,1.88-5.65   c0.03-0.09,0.03-0.19,0.05-0.34C544.64,216.21,544.56,216.62,544.31,216.85z M516.37,273.87c-1.25,0.72-2.58,1.23-3.93,1.73   c-0.84,0.31-1.64,0.71-2.47,1.06c-0.26,0.11-0.22,0.28-0.1,0.45c0.63,0.96,1.09,2,1.76,2.94c0.39,0.54,0.64,1.19,0.96,1.78   c0.21,0.38,0.47,0.49,0.72,0.03c0.67-1.18,1.28-2.4,2.01-3.53c0.45-0.69,0.73-1.51,1.37-2.07c0.3-0.26,0.39-0.63,0.56-0.93   c0.64-1.14,1.66-1.95,2.53-3.17C518.45,272.67,517.41,273.27,516.37,273.87z M512.51,206.76c0.01-0.02,0.04-0.03,0.04-0.05   c-0.01-0.03-0.03-0.06-0.04-0.09c-0.01,0.02-0.03,0.03-0.04,0.05C512.48,206.7,512.5,206.73,512.51,206.76z"/>
	<path class="st0" d="M539.66,22.25c0.08,0.08,0.17,0.16,0.25,0.24c0.08-0.16,0.13-0.31-0.07-0.42   C539.77,22.13,539.72,22.19,539.66,22.25z"/>
	<path class="st0" d="M522.09,225.82c0.02-0.11-0.02-0.15-0.12-0.12C522.01,225.74,522.05,225.78,522.09,225.82z"/>
	<path class="st0" d="M523.45,227.64c0.02-0.11-0.02-0.15-0.12-0.12C523.37,227.55,523.41,227.6,523.45,227.64z"/>
	<path class="st0" d="M536.63,83.47c-0.04,0.02-0.08,0.05-0.11,0.07c0.04,0.04,0.08,0.08,0.12,0.12   C536.64,83.6,536.63,83.54,536.63,83.47z"/>
	<path class="st0" d="M508.5,233.97c-0.04,0.04-0.08,0.08-0.11,0.12c0.04,0.02,0.08,0.04,0.11,0.07   C508.5,234.1,508.5,234.04,508.5,233.97z"/>
	<path class="st0" d="M508.5,234.73c-0.04,0.04-0.08,0.08-0.11,0.12c0.04,0.02,0.08,0.04,0.11,0.07   C508.5,234.85,508.5,234.79,508.5,234.73z"/>
	<path class="st0" d="M508.5,235.49c-0.04,0.04-0.08,0.08-0.11,0.12c0.04,0.02,0.08,0.04,0.11,0.07   C508.5,235.61,508.5,235.55,508.5,235.49z"/>
	<path class="st0" d="M492.02,263.35c0.04-0.04,0.08-0.08,0.11-0.12c-0.04-0.02-0.08-0.04-0.11-0.07   C492.02,263.23,492.02,263.29,492.02,263.35z"/>
	<path class="st0" d="M548.9,70.35c0.04-0.04,0.08-0.08,0.11-0.12c-0.04-0.02-0.08-0.04-0.11-0.07   C548.9,70.23,548.9,70.29,548.9,70.35z"/>
	<path class="st0" d="M489.75,290.23c0.11,0.02,0.15-0.02,0.12-0.12C489.83,290.15,489.79,290.19,489.75,290.23z"/>
	<path class="st1" d="M490.45,102.4c-0.23,0.31,0.01,0.58,0.09,0.8c0.54,1.39,0.88,2.85,1.4,4.25c0.43,1.16,0.74,2.34,1.13,3.51   c0.7,2.08,1.05,4.25,1.53,6.38c0.58,2.58,1.25,5.14,1.77,7.73c0.32,1.61,0.41,3.26,0.65,4.88c0.19,1.32,0.51,2.62,0.67,3.94   c0.16,1.3,0.48,2.58,0.55,3.9c0.08,1.69,0.33,3.36,0.41,5.05c0.05,1.03,0.03,2.05,0.16,3.08c0.26,2.07,0.31,4.17,0.65,6.22   c0.43,2.58,0.36,5.18,0.4,7.76c0.03,1.7,0.07,3.4-0.08,5.11c-0.11,1.24-0.11,2.5-0.15,3.75c-0.04,1.02-0.05,2.05-0.12,3.07   c-0.06,1.08-0.21,2.15-0.34,3.23c-0.11,0.94-0.1,1.89-0.16,2.84c-0.15,2.55-0.49,5.06-0.9,7.57c-0.14,0.89-0.04,1.01,0.88,1.18   c2.62,0.49,5.22,1.02,7.84,1.48c0.79,0.14,1.6,0.1,2.4,0.18c0.44,0.04,0.48-0.19,0.5-0.52c0.14-1.61,0.37-3.21,0.73-4.78   c0.37-1.63,0.91-3.2,1.61-4.72c0.79-1.71,1.75-3.31,2.92-4.78c0.51-0.64,0.97-1.32,1.54-1.91c1.3-1.36,2.53-2.79,4.06-3.91   c0.85-0.63,1.72-1.24,2.64-1.76c3.09-1.75,6.45-2.74,9.9-3.51c2.09-0.47,4.17-0.46,6.26-0.39c1.51,0.05,3.01,0.43,4.5,0.71   c2.4,0.45,4.61,1.42,6.77,2.46c1.52,0.73,3.09,1.49,4.28,2.7c1.72,1.74,3.38,3.53,4.68,5.65c0.96,1.55,1.68,3.16,2.17,4.92   c0.29,1.04,0.55,2.13,1.06,3.13c0.39-1.01,0.59-2.03,0.72-3.06c0.1-0.78,0.25-1.58,0.26-2.37c0.02-1.29,0.14-2.57,0.21-3.85   c0.13-2.13,0.11-4.24,0.04-6.37c-0.08-2.62-0.03-5.25-0.27-7.85c-0.27-3.08-0.28-6.19-0.97-9.25c-0.28-1.24-0.23-2.56-0.48-3.83   c-0.21-1.08-0.5-2.16-0.66-3.25c-0.55-3.76-1.81-7.35-2.57-11.06c-0.23-1.12-0.69-2.16-0.96-3.25c-0.37-1.48-0.69-2.97-1.27-4.38   c-0.6-1.45-0.97-2.97-1.51-4.45c-0.82-2.24-1.74-4.44-2.62-6.65c-0.64-1.59-1.32-3.17-2-4.75c-0.13-0.29-0.21-0.59-0.33-1.18   c-0.59,0.66-1.07,1.17-1.52,1.7c-1.76,2.07-3.87,3.67-6.22,5.01c-1.06,0.61-2.03,0.26-3-0.02c-2.09-0.59-3.66-1.91-4.92-3.65   c-0.9-1.24-1.74-2.51-2.36-3.92c-0.51-1.15-0.67-2.41-1.16-3.57c-0.15-0.35,0.19-0.56,0.38-0.71c1.16-0.95,2.17-2.04,3.23-3.09   c1.25-1.23,2.29-2.62,3.47-3.88c0.74-0.79,1.35-1.71,1.99-2.59c0.26-0.36,0.01-0.76-0.16-1.04c-0.57-0.9-1.22-1.75-1.83-2.62   c-0.57-0.8-1.14-1.6-1.7-2.4c-0.09-0.12-0.16-0.28-0.33-0.25c-0.16,0.03-0.24,0.15-0.27,0.32c-0.23,1.44-1.01,2.66-1.75,3.86   c-0.87,1.4-1.93,2.7-3.17,3.81c-1.81,1.6-3.62,3.21-5.6,4.62c-2.13,1.51-4.44,2.67-6.81,3.7c-1.39,0.6-2.86,1.02-4.34,1.41   c-1.76,0.46-3.54,0.83-5.33,1.19c-1.28,0.26-2.58,0.39-3.88,0.5c-0.82,0.07-1.66-0.02-2.45,0.24c-0.76,0.25-1.49-0.04-2.23,0   c-2.06,0.09-4.06-0.07-6-0.86c-0.46-0.19-1.02-0.08-1.53-0.24C492.06,103.29,491.29,102.76,490.45,102.4z"/>
	<path class="st1" d="M536.31,79.94c-0.26,1.26-0.74,2.47-1,3.72c-0.42,1.99-1.19,3.81-2.33,5.45c-1.17,1.67-2.58,3.15-4.2,4.41   c-1.12,0.87-2.08,1.92-3.27,2.7c-2.12,1.39-4.28,2.73-6.61,3.74c-2.3,1-4.74,1.58-7.19,2.16c-3.9,0.92-7.83,1.35-11.84,1.36   c-2.3,0.01-4.5-0.47-6.61-1.18c-2.47-0.83-4.76-2.1-6.88-3.65c-2.27-1.65-3.97-3.8-5.56-6.07c-1.12-1.6-1.81-3.43-2.73-5.13   c-0.64-1.18-1.09-2.41-1.5-3.68c-0.37-1.15-0.53-2.35-0.83-3.52c-0.35-1.36-0.73-2.72-0.69-4.16c0.04-1.34,0.03-2.69,0-4.03   c-0.01-0.48,0.12-0.83,0.53-1.07c0.48,0.6,0.77,1.32,1.12,2c0.9,1.74,1.79,3.5,2.47,5.35c0.12,0.32,0.36,0.61,0.77,0.61   c1.2,0.01,2.39,0,3.58,0.24c1.01,0.21,2.06-0.01,3.09,0.33c0.91,0.31,1.18,0.05,1.7-0.86c0.67-1.18,1.37-2.34,2.11-3.48   c1.38-2.13,2.74-4.27,3.81-6.58c0.34-0.74,0.8-1.52,0.2-2.42c-1.03-1.56-1.89-3.21-2.58-4.95c-0.14-0.35-0.47-0.49-0.82-0.58   c-2.74-0.66-5.59-0.45-8.35-0.92c-1-0.17-2.03-0.05-3.01-0.41c-0.41-0.15-0.77,0-0.97,0.46c-0.35,0.81-0.87,1.49-1.67,2.05   c0.21-0.55,0.38-1.06,0.6-1.54c0.95-2.06,1.9-4.1,3.17-6c1.23-1.82,2.68-3.43,4.23-4.95c1.52-1.5,3.27-2.7,5.07-3.85   c1.21-0.77,2.46-1.48,3.76-2.04c2.01-0.85,4-1.8,6.2-2.09c0.98-0.13,1.98-0.39,2.95-0.32c0.87,0.06,1.75,0.1,2.62,0.1   c1.65,0.01,3.25,0.33,4.86,0.61c1.65,0.29,3.16,1.07,4.77,1.52c2.04,0.58,3.91,1.54,5.72,2.68c2.77,1.75,5.38,3.63,7.61,6.07   c1.62,1.77,3.15,3.6,4.38,5.66c1.25,2.08,2.04,4.35,2.61,6.7c0.12,0.49-0.02,0.86-0.56,1.13c-1.57,0.8-3.28,1.22-4.87,1.94   c-0.78,0.35-1.63,0.54-2.35,1.04c-0.46,0.31-0.62,0.63-0.4,1.18c0.22,0.56,0.39,1.15,0.63,1.71c0.72,1.69,1.75,3.22,2.68,4.78   c0.96,1.61,1.73,3.31,2.61,4.95c0.17,0.33,0.33,0.63,0.69,0.71c0.43,0.1,0.61-0.28,0.83-0.54c0.47-0.57,0.83-1.24,1.48-1.79   C536.3,79.71,536.33,79.83,536.31,79.94z M501.84,84.71c-1.73-0.16-3.44-0.48-5.19-0.49c-1.99-0.02-3.97-0.24-5.95-0.44   c-0.6-0.06-1.19-0.12-1.79-0.13c-0.34,0-0.52,0.13-0.52,0.48c0.02,1.34-0.23,2.69,0.06,4c0.53,2.36,1.81,4.16,4.17,5.04   c1.14,0.43,2.34,0.74,3.53,0.72c3.36-0.03,6.33-1.8,7.35-5.5c0.17-0.61,0.41-1.23,0.31-1.82C503.82,85.42,503.2,84.84,501.84,84.71   z M513.38,82.43c1.07,0.2,1.52-0.67,2.03-1.28c1.22-1.46,2.44-2.94,3.47-4.53c0.78-1.2,1.71-2.28,2.41-3.54   c0.59-1.05,1.4-1.97,1.96-3.04c0.32-0.63,0.38-1.23-0.03-1.86c-0.83-1.31-1.27-2.8-1.88-4.21c-0.15-0.34-0.3-0.68-0.5-0.99   c-0.34-0.53-0.8-0.83-1.47-0.8c-2.41,0.09-4.79-0.2-7.16-0.59c-0.1-0.02-0.2-0.01-0.3-0.01c-2.14,0.09-4.28-0.2-6.42-0.2   c-0.78,0-1.59-0.07-2.38-0.11c-0.4-0.02-0.63,0.13-0.82,0.49c-0.55,1.01-1.07,2.03-2.04,2.77c-0.41,0.32-0.6,0.98-0.97,1.45   c-0.2,0.25-0.35,0.53-0.57,0.78c-0.44,0.5-0.69,0.92-0.16,1.67c0.69,0.97,1.06,2.15,1.61,3.23c0.87,1.72,1.64,3.48,2.76,5.08   c0.9,1.29,1.91,2.5,2.78,3.81c0.71,1.08,1.89,1.68,3.24,1.42C510.48,82.01,511.94,82.15,513.38,82.43z"/>
	<path class="st2" d="M537.38,163.22c-2.69-0.19-5.2,0.62-7.75,1.33c-3.9,1.1-7.39,2.95-10.29,5.78c-1.74,1.7-3.4,3.51-4.68,5.59   c-1.18,1.91-2.1,3.94-2.73,6.13c-0.63,2.19-0.95,4.41-1.1,6.64c-0.1,1.53-0.04,3.11,0.18,4.67c0.15,1.05,0.24,2.11,0.35,3.17   c0.17,1.72,0.59,3.38,0.97,5.06c0.68,2.91,1.69,5.73,2.6,8.57c0.52,1.62,1.42,3.12,2.05,4.71c0.81,2.05,2.01,3.9,2.95,5.89   c0.65,1.38,1.6,2.64,2.58,3.82c1.17,1.41,2.12,2.99,3.43,4.29c0.49,0.48,0.95,0.49,1.45,0.41c1.72-0.26,3.45-0.55,5.15-0.9   c1.35-0.28,2.57-0.92,3.83-1.45c0.61-0.26,0.05-0.64-0.05-0.7c-0.55-0.3-0.63-0.93-1.04-1.31c-0.2-0.19-0.17-0.41,0.07-0.62   c1.16-1.02,2.19-2.16,3.19-3.33c0.23-0.26,0.28-0.49,0.08-0.8c-1.34-1.98-2.47-4.08-3.67-6.15c-1.21-2.08-2.15-4.28-3.35-6.36   c-0.88-1.53-1.54-3.18-2.12-4.87c-0.4-1.15-0.74-2.32-1.08-3.49c-0.27-0.94-0.33-1.95-0.37-2.94c-0.06-1.68-0.09-3.36,0.14-5.04   c0.25-1.8,0.3-3.65,1.04-5.34c1.18-2.68,3.01-4.71,5.95-5.57c1.65-0.49,3.22-0.41,4.73,0.37c1.01,0.52,1.77,1.36,2.49,2.22   c1,1.19,1.96,2.39,2.5,3.89c0.14,0.38,0.73,0.47,1.13,0.64c2.42,1.04,4.99,1.04,7.55,0.89c1.45-0.09,2.97-0.27,4.18-1.22   c1.3-1.03,2.52-2.15,3.53-3.49c0.47-0.62,0.57-1.22,0.35-1.99c-0.57-1.97-1.17-3.92-1.96-5.82c-0.73-1.75-2.04-3.06-3.13-4.54   c-2.2-2.99-5.24-4.79-8.66-6.06c-1.12-0.42-2.17-1-3.36-1.21C542.14,163.69,539.81,163.05,537.38,163.22z"/>
	<path class="st2" d="M509.08,278.14c-0.14-0.24-0.27-0.45-0.39-0.66c-0.56-1.01-0.35-1.49,0.78-1.9c0.83-0.3,1.64-0.62,2.46-0.95   c0.2-0.08,0.35-0.13,0.26-0.51c-0.39-1.62-0.8-3.26-1.06-4.9c-0.34-2.11-0.65-4.23-1.01-6.33c-0.37-2.22-0.71-4.45-1.06-6.67   c-0.28-1.8-0.49-3.62-0.58-5.45c-0.09-1.92-0.42-3.82-0.56-5.73c-0.07-0.95-0.1-1.9-0.16-2.85c-0.17-2.53-0.32-5.07-0.47-7.6   c-0.08-1.43,0.27-2.82,0.35-4.23c0.08-1.44,0.34-2.85,0.43-4.29c0.12-1.87,0.43-3.72,0.68-5.58c0.2-1.51,0.43-3.02,0.65-4.53   c0.21-1.43,0.4-2.85,0.63-4.28c0.14-0.87,0.35-1.73,0.47-2.59c0.18-1.19,0.65-2.31,1.08-3.39c0.38-0.95,0.23-1.75-0.03-2.58   c-0.47-1.46-0.76-2.95-1.08-4.44c-0.29-1.37-0.5-2.78-0.56-4.17c-0.06-1.35-0.32-2.69-0.2-4.04c0.06-0.63-0.09-0.93-0.82-0.97   c-2.09-0.13-4.12-0.7-6.19-0.99c-1-0.14-1.97-0.39-2.94-0.63c-0.73-0.18-0.98,0.24-1.26,0.78c-1.15,2.17-1.72,4.55-2.46,6.87   c-0.83,2.62-1.34,5.3-1.93,7.98c-0.67,3.04-1.17,6.11-1.89,9.14c-0.24,1-0.23,2.07-0.35,3.11c-0.2,1.82-0.31,3.65-0.6,5.46   c-0.12,0.76-0.11,1.55-0.17,2.32c-0.18,2.34-0.4,4.68-0.53,7.03c-0.08,1.47-0.02,2.94,0.04,4.42c0.1,2.37-0.08,4.76,0.06,7.13   c0.13,2.2,0.19,4.41,0.55,6.6c0.13,0.81,0.05,1.65,0.16,2.48c0.22,1.65,0.37,3.3,0.58,4.96c0.23,1.74,0.53,3.46,0.81,5.18   c0.22,1.32,0.61,2.62,0.89,3.93c0.39,1.8,0.6,3.63,1.03,5.42c0.46,1.93,0.95,3.84,1.5,5.75c0.27,0.94,0.56,1.87,0.78,2.82   c0.08,0.35,0.23,0.44,0.55,0.45c1.73,0.08,3.42-0.29,5.12-0.4C504.85,279.14,506.87,278.28,509.08,278.14z"/>
	<path class="st2" d="M549.51,22.84c-1.64,0.54-3.18,1.08-4.54,2.04c-1.77,1.24-3.54,2.48-5.26,3.79c-0.43,0.33-0.82,0.77-1.22,1.17   c-0.29,0.29-0.21,0.53,0.01,0.85c2.16,3.14,3.99,6.5,5.88,9.8c1.24,2.16,2.2,4.47,3.05,6.82c0.83,2.29,1.77,4.56,2.32,6.93   c0.31,1.31,0.45,2.67,0.56,4.04c0.13,1.73,0.49,3.45,0.4,5.2c-0.1,2.16-0.41,4.3-0.56,6.45c-0.16,2.28-0.79,4.45-1.3,6.65   c-0.42,1.8-1.21,3.5-2.06,5.15c-1.05,2.04-2.02,4.13-3.11,6.14c-1.43,2.63-3.04,5.13-4.99,7.44c-1.47,1.74-3.17,3.26-4.61,5.01   c-0.03,0.04-0.07,0.07-0.11,0.09c-0.53,0.35-1.29,0.85-1.26,1.29c0.06,0.75,0.24,1.57,0.63,2.29c0.25,0.47,0.38,1.01,0.63,1.48   c1.16,2.16,2.43,4.24,4.6,5.53c0.92,0.55,1.99,0.79,3.03,1.03c0.35,0.08,0.66-0.34,1.02-0.49c0.93-0.4,1.68-1.13,2.49-1.75   c1.86-1.43,3.34-3.23,5.07-4.78c0.74-0.67,1.27-1.5,1.85-2.27c0.89-1.2,1.89-2.33,2.66-3.62c0.5-0.84,1.05-1.65,1.56-2.48   c1.51-2.45,2.78-5.02,3.91-7.67c0.83-1.96,1.51-3.98,2.1-6c0.49-1.68,0.96-3.41,1.05-5.21c0.05-1.1,0.35-2.19,0.47-3.29   c0.14-1.31,0.24-2.61,0.27-3.92c0.03-1.37,0.25-2.76,0.1-4.11c-0.13-1.16-0.04-2.33-0.21-3.49c-0.15-1.03-0.07-2.1-0.18-3.16   c-0.18-1.77-0.34-3.54-0.74-5.27c-0.25-1.11-0.23-2.26-0.45-3.38c-0.27-1.42-0.66-2.82-0.95-4.23c-0.51-2.47-1.06-4.93-1.97-7.28   c-0.77-1.97-1.64-3.9-2.63-5.78c-0.58-1.1-1.1-2.23-1.74-3.31c-0.97-1.65-1.96-3.28-3.11-4.8c-0.63-0.83-1.29-1.64-2.02-2.39   C549.92,23.13,549.7,23.04,549.51,22.84z"/>
	<path class="st2" d="M462.22,63.3c0,1.25-0.01,2.5,0,3.74c0.02,1.7,0.17,3.39,0.25,5.08c0.07,1.54,0.18,3.07,0.37,4.59   c0.13,1.09,0.37,2.18,0.6,3.26c0.59,2.87,1.17,5.74,1.82,8.6c0.37,1.62,0.81,3.22,1.4,4.79c1.59,4.23,3.5,8.27,5.97,12.05   c1.11,1.7,2.37,3.26,3.76,4.7c1.95,2.02,4.13,3.85,6.9,4.6c2.38,0.65,4.76,1.39,7.25,1.65c0.7,0.07,1.46,0.16,2.16,0.38   c0.28,0.09,0.52,0.13,0.47-0.42c-0.16-1.78-0.83-3.43-1.23-5.14c-0.33-1.43-0.83-2.85-1.36-4.24c-0.29-0.76-0.5-1.55-0.68-2.34   c-0.22-0.95-0.68-1.81-1.06-2.7c-0.27-0.62-1.02-0.78-1.55-1.15c-1.33-0.94-2.64-1.9-3.8-3.04c-1.88-1.85-3.45-3.96-4.78-6.23   c-1.22-2.07-2.19-4.27-2.95-6.54c-0.59-1.77-0.89-3.66-1.34-5.48c-0.47-1.89-0.48-3.8-0.5-5.69c-0.03-2.71,0.31-5.41,0.95-8.09   c0.6-2.53,1.01-5.11,1.31-7.71c0.21-1.81,0.54-3.64,1.02-5.42c0.39-1.43,0.68-2.89,1.05-4.33c0.45-1.8,1.01-3.57,1.43-5.38   c0.41-1.73,0.82-3.47,1.43-5.15c0.32-0.9,0.72-1.76,1.17-2.6c0.27-0.51,0.19-0.87-0.25-1.12c-1.22-0.71-2.46-1.39-3.71-2.05   c-0.63-0.33-1.3-0.57-1.89-0.99c-0.67-0.48-1.48-0.51-2.24-0.65c-1.46-0.27-2.92-0.54-4.43-0.5c-0.66,0.02-1.04,0.19-1.36,0.84   c-1.12,2.28-1.95,4.68-2.33,7.15c-0.45,2.9-1.37,5.67-1.87,8.54c-0.38,2.2-0.57,4.43-0.94,6.63c-0.49,2.87-0.79,5.74-0.76,8.65   C462.51,62.15,462.31,62.72,462.22,63.3z"/>
	<path class="st1" d="M487.49,294.51c1.01,0.09,1.97-0.26,2.96-0.32c1.12-0.08,2.24-0.18,3.36-0.3c2.46-0.26,4.88-0.72,7.3-1.22   c2.17-0.45,4.34-0.89,6.51-1.35c1.01-0.21,2-0.48,3.01-0.67c1.86-0.35,3.68-0.91,5.56-1.14c0.91-0.11,0.97-0.22,0.7-1.09   c-0.64-2.04-1.26-4.08-1.86-6.13c-0.06-0.2-0.05-0.42-0.28-0.46c-0.23-0.04-0.23,0.23-0.32,0.36c-0.25,0.33-0.47,0.69-0.64,1.06   c-0.2,0.46-0.57,0.81-0.99,0.75c-0.3-0.04-0.59-0.48-0.79-0.81c-0.73-1.19-1.44-2.38-2.1-3.6c-0.23-0.44-0.59-0.45-0.87-0.34   c-1.2,0.47-2.49,0.54-3.73,0.76c-1.92,0.34-3.85,0.73-5.82,0.74c-0.66,0-1.3,0.1-1.61,0.86c-0.25,0.61-0.87,0.93-1.25,1.44   c-0.97,1.31-1.88,2.66-2.83,3.99c-0.89,1.25-1.91,2.38-2.89,3.55c-1.12,1.33-2.32,2.58-3.53,3.83   C487.41,294.43,487.45,294.47,487.49,294.51z"/>
	<path class="st1" d="M529.01,249.81c0.66-0.97,1.64-1.58,2.38-2.44c1.06-1.23,2.36-2.23,3.56-3.33c0.76-0.7,1.41-1.53,2.13-2.27   c0.71-0.73,1.41-1.46,2.14-2.18c0.87-0.85,1.67-1.8,2.42-2.79c0.72-0.95,1.56-1.82,2.37-2.69c1.14-1.23,2.17-2.55,3.15-3.91   c0.41-0.56,0.12-0.9-0.29-1.18c-1.25-0.85-2-2.25-3.31-3.03c-0.08-0.04-0.11-0.16-0.17-0.24c-0.67,1.17-0.9,2.5-1.4,3.73   c-0.41,1-0.9,1.15-1.74,0.44c-0.62-0.53-1.31-1.01-1.86-1.61c-0.56-0.61-0.91-0.72-1.71-0.29c-1.75,0.94-3.66,1.52-5.63,1.88   c-0.73,0.13-1.69,0.09-2.09,0.53c-0.34,0.38,0.06,1.36-0.05,2.05c-0.25,1.56-0.13,3.14-0.23,4.7c-0.16,2.54-0.15,5.1,0,7.64   c0.07,1.14-0.06,2.28,0.09,3.41C528.83,248.75,529.02,249.25,529.01,249.81z"/>
	<path class="st2" d="M481,77.88c-0.39-0.06-0.8-0.09-1.02-0.58c-0.64-1.45-1.21-2.92-2.02-4.29c-0.64-1.09-1.13-2.27-1.68-3.42   c-0.15-0.32-0.48-0.51-0.48-0.96c-0.02-0.93,0.15-1.84,0.22-2.76c0.02-0.35-0.02-0.79,0.24-1.11c0.67-0.84,1.27-1.76,2.04-2.5   c0.68-0.65,0.97-1.96,2.37-1.61c0.5,0.12,1.02,0.17,1.53,0.24c0.93,0.13,1.86,0.34,2.79,0.35c1.83,0.01,3.63,0.17,5.43,0.47   c0.36,0.06,0.57,0.26,0.69,0.58c0.58,1.61,1.55,2.99,2.48,4.41c0.1,0.14,0.25,0.29,0.14,0.51c-0.36,0.75-0.58,1.6-1.08,2.24   c-1.14,1.43-1.84,3.13-2.87,4.63c-0.89,1.29-1.65,2.66-2.45,4.01c-0.16,0.28-0.38,0.32-0.63,0.26c-1.5-0.35-3.04-0.36-4.57-0.44   C481.76,77.89,481.37,77.94,481,77.88z M484.75,64.29c-1.69,0.47-3.63,0.14-5.01,1.6c-0.63,0.67-0.92,1.53-1.01,2.39   c-0.13,1.28-0.04,2.53,0.62,3.75c0.66,1.19,1.6,1.9,2.86,2.06c2.22,0.29,4.28-0.06,5.73-2.03c0.66-0.9,0.59-2,0.74-2.84   C488.67,66.35,486.98,64.96,484.75,64.29z"/>
	<path class="st3" d="M545.54,63.02c-1.25,0.38-2.43,0.75-3.62,1.11c-2,0.6-3.96,1.37-5.88,2.18c-1.86,0.78-3.76,1.46-5.6,2.28   c-0.49,0.22-0.99,0.41-1.49,0.59c-0.45,0.16-0.55,0.41-0.33,0.83c0.69,1.31,1.37,2.63,2.04,3.95c0.64,1.26,1.56,2.35,2.09,3.68   c0.28,0.71,0.83,1.31,1.28,1.95c0.35,0.5,0.56,0.14,0.79-0.14c0.71-0.88,1.19-1.92,1.83-2.84c1.47-2.08,3.02-4.11,4.5-6.19   c1.61-2.27,2.95-4.71,4.29-7.14C545.47,63.23,545.48,63.17,545.54,63.02z"/>
	<path class="st1" d="M538.32,8.56c-0.03,0.99,0.17,1.86,0.34,2.72c0.46,2.41,0.95,4.81,1.47,7.2c0.26,1.2,0.63,2.38,0.95,3.56   c0.24,0.9,0.47,1.8,0.75,2.69c0.21,0.67,0.51,0.74,1.06,0.25c0.56-0.5,1.25-0.81,1.82-1.26c1-0.78,2.21-1.07,3.31-1.62   c0.35-0.18,0.58-0.26,0.5-0.8c-0.42-2.71-1.81-4.92-3.43-7.05c-0.97-1.28-2.01-2.49-3.24-3.51C540.8,9.88,539.61,9.24,538.32,8.56z   "/>
	<path class="st1" d="M529.71,15.98c-0.12,1.81-0.15,3.52,0.29,5.18c0.44,1.69,1.1,3.31,2.1,4.76c0.83,1.2,1.87,2.21,3.14,2.94   c0.46,0.27,1.03,0.31,1.5,0.6c0.3,0.18,0.53-0.16,0.7-0.31c1.04-0.92,2.1-1.81,3.26-2.59c0.32-0.22,0.34-0.42,0.08-0.78   c-1.35-1.81-2.61-3.65-4.37-5.14c-1.05-0.89-2.01-1.91-2.92-2.97c-0.98-1.14-2.17-2.11-3.26-3.16c-0.37-0.36-0.47,0.06-0.49,0.21   C529.68,15.18,529.71,15.63,529.71,15.98z"/>
	<path class="st1" d="M476.7,29.68c-0.35-1-0.35-1.91-0.35-2.77c-0.01-2.23-0.52-4.41-0.6-6.61c-0.05-1.31-0.45-2.64-0.09-3.98   c0.16-0.57-0.18-1.17-0.16-1.78c0.01-0.29-0.22-0.39-0.52-0.15c-1.19,0.91-2.23,1.99-3.2,3.11c-1.36,1.58-2.16,3.47-2.51,5.51   c-0.28,1.62-0.61,3.26-0.26,4.93c0.1,0.48,0.26,0.65,0.76,0.66C472.06,28.64,474.31,28.99,476.7,29.68z"/>
	<path class="st1" d="M529.69,188.57c1.73,0.25,3.41-0.07,5.09-0.14c2.42-0.11,4.86-0.16,7.26-0.59c0.46-0.08,0.88-0.32,1.37-0.3   c0.2,0.01,0.41-0.14,0.28-0.4c-0.63-1.28-1.35-2.5-2.37-3.51c-0.62-0.61-1.12-1.34-1.95-1.75c-1.84-0.9-3.61-0.71-5.3,0.32   C531.68,183.65,530.21,185.77,529.69,188.57z"/>
	<path class="st1" d="M487.55,18.83c-1.21,1.23-2.1,2.52-3.08,3.73c-1.04,1.28-2.04,2.59-3.15,3.81c-1.02,1.12-2,2.28-2.99,3.43   c-0.42,0.48-0.3,0.7,0.32,0.92c1.16,0.42,2.18,1.11,3.24,1.73c0.4,0.23,0.81,0.45,1.14,0.8c0.32,0.33,0.61,0.22,0.99-0.05   c1.27-0.89,1.89-2.22,2.62-3.52c1.27-2.25,1.55-4.67,1.41-7.17C488,21.33,487.74,20.15,487.55,18.83z"/>
	<path class="st3" d="M545.12,216.21c-0.48,0-0.56,0.41-0.8,0.63c-0.96,0.87-1.77,1.9-2.7,2.77c-0.74,0.69-1.35,1.5-2.12,2.17   c-0.74,0.64-1.42,1.4-2.06,2.16c-0.09,0.1-0.12,0.29-0.26,0.34c-0.61,0.23-0.53,0.68-0.2,0.99c1.24,1.2,2.46,2.41,3.85,3.43   c0.3,0.22,0.3-0.07,0.36-0.24c0.23-0.69,0.47-1.38,0.7-2.07c0.45-1.4,1-2.78,1.32-4.21c0.43-1.96,1.32-3.75,1.88-5.65   C545.1,216.46,545.1,216.36,545.12,216.21z"/>
	<path class="st3" d="M519.79,272.15c-1.34,0.51-2.38,1.12-3.42,1.72c-1.25,0.72-2.58,1.23-3.93,1.73   c-0.84,0.31-1.64,0.71-2.47,1.06c-0.26,0.11-0.22,0.28-0.1,0.45c0.63,0.96,1.09,2,1.76,2.94c0.39,0.54,0.64,1.19,0.96,1.78   c0.21,0.38,0.47,0.49,0.72,0.03c0.67-1.18,1.28-2.4,2.01-3.53c0.45-0.69,0.73-1.51,1.37-2.07c0.3-0.26,0.39-0.63,0.56-0.93   C517.9,274.19,518.92,273.37,519.79,272.15z"/>
	<path class="st1" d="M487.37,294.4c-0.05,0.07-0.1,0.13-0.15,0.2c0.12,0.08,0.21,0.03,0.26-0.09   C487.45,294.47,487.41,294.43,487.37,294.4z"/>
	<path class="st0" d="M512.47,206.68c0.02,0.03,0.03,0.06,0.05,0.09c0.01-0.02,0.04-0.03,0.04-0.05c-0.01-0.03-0.03-0.06-0.04-0.09   C512.5,206.64,512.48,206.66,512.47,206.68z"/>
	<path d="M503.82,86.57c0-1.15-0.62-1.73-1.98-1.86c-1.73-0.16-3.44-0.48-5.19-0.49c-1.99-0.02-3.97-0.24-5.95-0.44   c-0.6-0.06-1.19-0.12-1.79-0.13c-0.34,0-0.52,0.13-0.52,0.48c0.02,1.34-0.23,2.69,0.06,4c0.53,2.36,1.81,4.16,4.17,5.04   c1.14,0.43,2.34,0.74,3.53,0.72c3.36-0.03,6.33-1.8,7.35-5.5C503.67,87.78,503.92,87.16,503.82,86.57z"/>
	<path d="M505.71,80.54c-0.87-1.32-1.88-2.52-2.78-3.81c-1.12-1.61-1.89-3.37-2.76-5.08c-0.55-1.07-0.92-2.26-1.61-3.23   c-0.53-0.75-0.28-1.17,0.16-1.67c0.21-0.25,0.37-0.53,0.57-0.78c0.37-0.46,0.55-1.13,0.97-1.45c0.97-0.74,1.49-1.76,2.04-2.77   c0.2-0.36,0.42-0.51,0.82-0.49c0.79,0.05,1.6,0.11,2.38,0.11c2.15,0,4.28,0.29,6.42,0.2c0.1,0,0.2-0.01,0.3,0.01   c2.37,0.39,4.75,0.68,7.16,0.59c0.67-0.02,1.13,0.28,1.47,0.8c0.2,0.31,0.35,0.65,0.5,0.99c0.61,1.41,1.05,2.9,1.88,4.21   c0.41,0.64,0.35,1.24,0.03,1.86c-0.56,1.08-1.37,1.99-1.96,3.04c-0.7,1.26-1.64,2.34-2.41,3.54c-1.03,1.59-2.25,3.07-3.47,4.53   c-0.51,0.61-0.95,1.49-2.03,1.28c-1.44-0.27-2.9-0.42-4.43-0.47C507.6,82.22,506.43,81.62,505.71,80.54z M514.22,80.71   c1.09-1.13,1.97-2.43,2.9-3.69c1.03-1.41,2.07-2.82,3.05-4.27c0.7-1.03,1.4-2.07,2.08-3.12c0.2-0.3,0.2-0.59,0-0.89   c-0.9-1.38-1.5-2.89-1.95-4.47c-0.25-0.89-0.99-0.91-1.71-0.9c-1.95,0-3.88-0.23-5.8-0.48c-1.47-0.19-2.95-0.23-4.43-0.37   c-1.57-0.15-3.18-0.02-4.76-0.19c-0.24-0.02-0.35,0.13-0.41,0.25c-0.88,1.85-2.43,3.22-3.49,4.94c-0.18,0.3-0.25,0.41-0.02,0.74   c1.05,1.5,1.6,3.27,2.48,4.87c0.65,1.17,1.33,2.32,2.07,3.45c0.8,1.22,1.85,2.24,2.61,3.48c0.35,0.57,0.96,0.66,1.52,0.68   c1.71,0.05,3.41,0.23,5.11,0.45C513.85,81.28,514.01,80.94,514.22,80.71z"/>
	<path d="M488.69,69.21c-0.02-2.86-1.71-4.26-3.94-4.92c-1.69,0.47-3.63,0.14-5.01,1.6c-0.63,0.67-0.92,1.53-1.01,2.39   c-0.13,1.28-0.04,2.53,0.62,3.75c0.66,1.19,1.6,1.9,2.86,2.06c2.22,0.29,4.28-0.06,5.73-2.03   C488.61,71.15,488.54,70.05,488.69,69.21z"/>
	<path class="st2" d="M508.34,80.74c-0.56-0.02-1.17-0.1-1.52-0.68c-0.76-1.24-1.81-2.27-2.61-3.48c-0.74-1.12-1.42-2.27-2.07-3.45   c-0.88-1.6-1.42-3.36-2.48-4.87c-0.23-0.33-0.16-0.44,0.02-0.74c1.06-1.72,2.61-3.09,3.49-4.94c0.06-0.13,0.18-0.28,0.41-0.25   c1.58,0.17,3.19,0.04,4.76,0.19c1.47,0.14,2.95,0.18,4.43,0.37c1.92,0.25,3.85,0.48,5.8,0.48c0.72,0,1.46,0.02,1.71,0.9   c0.45,1.58,1.05,3.09,1.95,4.47c0.2,0.3,0.2,0.59,0,0.89c-0.68,1.05-1.38,2.08-2.08,3.12c-0.98,1.44-2.02,2.85-3.05,4.27   c-0.92,1.26-1.8,2.56-2.9,3.69c-0.21,0.22-0.37,0.57-0.78,0.48C511.75,80.98,510.05,80.79,508.34,80.74z M510.03,76.82   c3.46,0.01,5.37-2.37,5.56-5.4c0.16-2.57-2.38-5.08-4.96-5.16c-3.13-0.1-5.61,2.25-5.45,4.86   C504.88,74.62,507.74,76.81,510.03,76.82z"/>
	<path d="M505.18,71.12c-0.3,3.51,2.56,5.69,4.86,5.7c3.46,0.01,5.37-2.37,5.56-5.4c0.16-2.57-2.38-5.08-4.96-5.16   C507.5,66.16,505.02,68.5,505.18,71.12z"/>
</g>
<g>
	<rect x="27.81" y="21.41" class="st4" width="424.75" height="52.02"/>
</g>
<rect x="-10.24" y="-8.97" class="st5" width="23.05" height="860.36"/>
<rect x="580.45" y="-8.97" class="st4" width="23.76" height="860.36"/>
<g>
	<rect x="27.81" y="66.91" class="st4" width="401.99" height="52.02"/>
</g>
<text transform="matrix(1 0 0 1 44.7144 105.0392)" class="st0 st6 st7">online hodina kódování</text>
<text transform="matrix(1 0 0 1 44.7144 59.5392)" class="st0 st6 st7">Tipy pro vaši účast</text>
<g>
	<rect x="27.81" y="165.18" class="st8" width="267.64" height="554.43"/>
</g>
<g>
	<rect x="301.67" y="165.18" class="st8" width="267.64" height="491.24"/>
</g>
<g>
	<path class="st5" d="M95.69,767.81c0,18.37-14.89,33.25-33.25,33.25c-18.37,0-33.25-14.89-33.25-33.25   c0-18.37,14.89-33.25,33.25-33.25C80.8,734.56,95.69,749.45,95.69,767.81z"/>
	<path class="st9" d="M45.85,781.29c0,0.49-0.12,0.89-0.61,0.91v0.01c-0.27,0.02,0.06,0.03-0.15,0.03c-1.67,0-2.85-0.37-3.54-1.1   c-0.69-0.73-1.04-1.97-1.04-3.73v-5.97c0-0.95-0.14-1.65-0.41-2.11c-0.27-0.46-0.75-0.79-1.43-0.99c-0.35-0.14-0.59-0.47-0.59-0.86   c0-0.39,0.24-0.72,0.58-0.86v0c1.24-0.33,1.86-1.31,1.86-2.93v-6.37c0-1.58,0.36-2.72,1.07-3.42c0.71-0.7,1.88-1.05,3.5-1.05h0.15   v0c0.51,0,0.65,0.42,0.65,0.93c0,0.51-0.14,0.64-0.65,0.64v0.01c-1.22,0.02-2.04,0.23-2.47,0.62c-0.42,0.39-0.64,1.15-0.64,2.28   v6.49c0,0.73-0.1,1.41-0.29,2.02c-0.22,0.69-0.79,1.26-1.7,1.72c0.73,0.39,1.25,0.87,1.55,1.43c0.3,0.56,0.45,1.36,0.45,2.39v6.26   c0,1.21,0.2,2.02,0.61,2.41c0.4,0.4,1.24,0.6,2.5,0.61v0.01C45.73,780.68,45.85,780.8,45.85,781.29z"/>
	<path class="st9" d="M79.64,780.67v-0.01c1.26-0.01,2.1-0.21,2.5-0.61c0.4-0.4,0.61-1.2,0.61-2.41v-6.26   c0-1.03,0.15-1.83,0.45-2.39c0.3-0.56,0.81-1.04,1.55-1.43c-0.91-0.46-1.48-1.03-1.7-1.72c-0.19-0.62-0.29-1.29-0.29-2.02v-6.49   c0-1.13-0.21-1.89-0.64-2.28c-0.42-0.39-1.25-0.6-2.47-0.62v-0.01c-0.51,0-0.92-0.13-0.92-0.64c0-0.51,0.41-0.92,0.92-0.93v0h0.15   c1.62,0,2.79,0.35,3.5,1.05c0.71,0.7,1.07,1.84,1.07,3.42v6.37c0,1.62,0.62,2.6,1.86,2.93v0c0.34,0.14,0.58,0.47,0.58,0.86   c0,0.39-0.25,0.73-0.59,0.86c-0.68,0.2-1.16,0.53-1.43,0.99c-0.28,0.46-0.41,1.17-0.41,2.11v5.97c0,1.75-0.34,2.99-1.04,3.73   c-0.69,0.73-1.87,1.1-3.54,1.1c-0.21,0,0.12-0.01-0.15-0.03v-0.01c-0.49-0.01-0.89-0.41-0.89-0.91   C78.75,780.8,79.15,780.68,79.64,780.67z"/>
	<path class="st0" d="M57.93,764.7c0.97,0,1.79-0.34,2.47-1.01c0.68-0.68,1.02-1.49,1.02-2.43c0-0.94-0.34-1.75-1.03-2.42   c-0.69-0.67-1.51-1.01-2.47-1.01s-1.78,0.33-2.47,1c-0.68,0.67-1.02,1.48-1.02,2.42c0,0.95,0.34,1.76,1.02,2.43   C56.15,764.36,56.97,764.7,57.93,764.7z M56.53,759.84c0.39-0.39,0.86-0.59,1.41-0.59c0.55,0,1.02,0.19,1.41,0.58   c0.39,0.39,0.58,0.86,0.58,1.41c0,0.56-0.19,1.04-0.58,1.42c-0.39,0.39-0.86,0.58-1.41,0.58c-0.55,0-1.02-0.19-1.41-0.58   c-0.39-0.39-0.58-0.86-0.58-1.41C55.95,760.71,56.14,760.23,56.53,759.84z M74.79,759.35c0.95,0,1.57,0.42,1.79,1.2h-3.56   C73.31,759.77,73.92,759.35,74.79,759.35z M77.2,771.56c-0.63-0.66-1.4-0.98-2.32-0.98c-0.65,0-1.23,0.18-1.73,0.53   c-0.12,0.09-0.23,0.18-0.31,0.25v-2.34l0,0c0-0.42-0.34-0.76-0.76-0.76c-0.42,0-0.76,0.34-0.76,0.76v7.73h0   c0,0.39,0.32,0.71,0.71,0.71c0.39,0,0.71-0.32,0.71-0.71h0.01v-0.21c0.31,0.34,0.67,0.58,1.06,0.72c0.36,0.13,0.72,0.2,1.1,0.2   c0.91,0,1.68-0.33,2.3-1c0.62-0.67,0.93-1.49,0.93-2.46C78.14,773.03,77.82,772.22,77.2,771.56z M75.99,775.37   c-0.36,0.37-0.81,0.55-1.34,0.55c-0.53,0-0.98-0.18-1.34-0.53c-0.36-0.36-0.54-0.8-0.54-1.33c0-0.58,0.17-1.05,0.52-1.41   c0.35-0.36,0.8-0.54,1.36-0.54c0.53,0,0.98,0.18,1.34,0.55c0.36,0.37,0.54,0.82,0.54,1.36C76.53,774.55,76.35,775,75.99,775.37z    M68.51,771.36v5.38h0c0,0.39-0.33,0.71-0.73,0.71c-0.4,0-0.73-0.32-0.73-0.71c0-0.03,0-0.05,0.01-0.07v-0.3   c-0.13,0.17-0.24,0.3-0.32,0.39c-0.42,0.46-1.03,0.69-1.83,0.69c-0.52,0-1-0.11-1.43-0.33c-0.43-0.22-0.74-0.52-0.94-0.9   c-0.18-0.33-0.29-0.74-0.32-1.22c-0.01-0.17-0.02-0.59-0.02-1.27v-2.37c0,0,0,0,0,0c0-0.42,0.35-0.76,0.78-0.76   c0.43,0,0.78,0.34,0.78,0.76c0,0.04-0.01,0.08-0.01,0.13v2.24c0,0.45,0,0.72,0.01,0.81c0,0.31,0.06,0.59,0.18,0.83   c0.2,0.43,0.62,0.64,1.25,0.64c1.18,0,1.77-0.76,1.77-2.29v-2.37l0,0c0-0.42,0.35-0.76,0.78-0.76   C68.16,770.6,68.51,770.94,68.51,771.36z M68.94,755.58c-0.41,0-0.75,0.34-0.75,0.75l0,0v2.26c-0.36-0.31-0.72-0.52-1.07-0.64   c-0.29-0.09-0.61-0.14-0.94-0.14c-0.91,0-1.68,0.33-2.3,0.98c-0.62,0.65-0.93,1.47-0.93,2.43c0,0.97,0.31,1.79,0.92,2.46   c0.61,0.67,1.37,1,2.26,1c0.74,0,1.36-0.21,1.84-0.62c0.11-0.1,0.21-0.2,0.28-0.29v0.15h0.01c0,0,0,0,0,0   c0,0.39,0.32,0.71,0.7,0.71c0.39,0,0.71-0.32,0.71-0.71c0,0,0,0,0,0h0v-7.59l0,0C69.69,755.92,69.35,755.58,68.94,755.58z    M67.72,762.62c-0.35,0.36-0.8,0.54-1.33,0.54c-0.52,0-0.95-0.18-1.31-0.55c-0.36-0.37-0.54-0.81-0.54-1.34   c0-0.55,0.18-1.01,0.53-1.38c0.35-0.37,0.79-0.55,1.31-0.55c0.55,0,1,0.18,1.34,0.54c0.34,0.36,0.52,0.82,0.52,1.38   C68.24,761.81,68.07,762.26,67.72,762.62z M60.3,776.52c0,0.38-0.31,0.69-0.69,0.69h-3.84c-0.38,0-0.69-0.31-0.69-0.69   c0-0.38,0.31-0.69,0.69-0.69c0.01,0,1.18,0,1.18,0v-5.91h-1.18v-0.01c-0.38,0-0.69-0.31-0.69-0.69c0-0.38,0.31-0.69,0.69-0.69h1.99   c0.38,0,0.69,0.31,0.69,0.69c0,0.01,0,0.02,0,0.03l0,0v6.58c0,0,1.14,0,1.15,0C59.99,775.83,60.3,776.14,60.3,776.52z M48.79,772.6   c-0.37,0.39-0.56,0.89-0.56,1.4c0,0.51,0.19,1.01,0.56,1.4c0.74,0.77,1.95,0.77,2.69,0c0.28-0.29,0.91-0.29,1.21,0   c0.3,0.29,0.3,0.75,0,1.04c-0.7,0.67-1.61,1.01-2.53,1.01c-0.92,0-1.83-0.34-2.53-1.01c-1.39-1.35-1.39-3.54,0-4.88   c1.39-1.35,3.66-1.35,5.05,0c0.3,0.29,0.3,0.76,0,1.04c-0.3,0.29-0.93,0.29-1.21,0C50.73,771.83,49.53,771.83,48.79,772.6z    M48.76,759.85c-0.37,0.39-0.55,0.89-0.55,1.4c0,0.51,0.18,1.01,0.55,1.4c0.73,0.77,1.93,0.77,2.66,0c0.27-0.29,0.9-0.29,1.19,0   c0.3,0.29,0.3,0.75,0,1.04c-0.69,0.67-1.6,1.01-2.5,1.01s-1.81-0.34-2.5-1.01c-1.38-1.35-1.38-3.54,0-4.88c1.38-1.35,3.62-1.35,5,0   c0.3,0.29,0.3,0.75,0,1.04c-0.3,0.29-0.92,0.29-1.19,0C50.69,759.08,49.5,759.08,48.76,759.85z M77.72,763.75   c0.31-0.3,0.31-0.78,0-1.08c-0.31-0.3-0.87-0.3-1.15,0l0,0c-0.37,0.32-0.87,0.49-1.32,0.5c-0.02,0-0.23,0-0.24,0   c-0.53,0-0.97-0.12-1.33-0.36c-0.36-0.24-0.58-0.59-0.67-1h4.31c0.48,0,0.87-0.4,0.87-0.89c0-0.02,0-0.04-0.01-0.06   c0-0.01,0.01-0.01,0.01-0.02c-0.1-0.79-0.4-1.44-0.92-1.99c-0.64-0.68-1.44-1.02-2.41-1.02c-0.95,0-1.75,0.34-2.43,1.01   c-0.68,0.67-1.02,1.49-1.02,2.46c0,0.99,0.33,1.8,0.98,2.44c0.66,0.64,1.49,0.97,2.5,0.97c0,0,0.01,0,0.01,0c0.07,0,0.32,0,0.33,0   c0.9,0,1.81-0.32,2.51-0.97L77.72,763.75z"/>
</g>
<g id="Layer_x0020_1_1_">
	<path id="path10_1_" d="M123.87,795.22v2.72c-0.02,0.8-0.19,1.53-0.48,2.15c-0.24,0.53-0.62,1.05-1.16,1.45   c-0.53,0.43-1.26,0.67-2.23,0.67c-0.97,0-1.72-0.24-2.26-0.67c-0.53-0.41-0.89-0.91-1.13-1.45c-0.29-0.62-0.46-1.34-0.48-2.15   v-11.63c0.03-0.78,0.19-1.5,0.48-2.12c0.24-0.53,0.59-1.08,1.13-1.47c0.53-0.41,1.29-0.67,2.26-0.67s1.69,0.27,2.23,0.67   c0.53,0.41,0.91,0.94,1.16,1.47c0.29,0.62,0.46,1.34,0.48,2.12v2.72h-2.72v-2.72c0-0.53-0.14-0.91-0.43-1.23   c-0.14-0.14-0.38-0.22-0.67-0.22c-0.51,0-0.75,0.38-0.89,0.72c-0.08,0.22-0.11,0.46-0.14,0.73v11.63c0.03,0.56,0.19,0.94,0.46,1.23   c0.14,0.14,0.32,0.22,0.56,0.22c0.62,0,0.86-0.32,0.99-0.72c0.08-0.19,0.11-0.43,0.11-0.72v-2.72L123.87,795.22L123.87,795.22z    M132.32,798.42c-0.08,1.42-0.51,2.41-1.45,3.2c-0.48,0.41-1.16,0.59-2.04,0.59c-1.75,0-2.6-0.97-3.04-1.93   c-0.24-0.56-0.41-1.21-0.43-1.93v-7.39c0.08-1.42,0.51-2.47,1.45-3.27c0.46-0.41,1.13-0.59,2.02-0.59c1.75,0,2.63,0.97,3.06,1.91   c0.24,0.56,0.41,1.18,0.43,1.88V798.42z M129.77,790.95c0.03-0.56-0.08-0.96-0.35-1.29c-0.14-0.14-0.35-0.22-0.59-0.22   c-0.51,0-0.73,0.35-0.84,0.75c-0.08,0.22-0.11,0.46-0.08,0.75v7.39c-0.02,0.56,0.11,0.97,0.35,1.26c0.14,0.14,0.32,0.22,0.56,0.22   c0.51,0,0.75-0.32,0.86-0.72c0.08-0.22,0.11-0.46,0.08-0.75V790.95L129.77,790.95z M141.06,801.99h-2.72v-0.97   c-0.46,0.43-0.86,0.75-1.37,0.99c-0.27,0.14-0.54,0.19-0.78,0.19c-0.75,0-1.26-0.43-1.59-0.99c-0.35-0.53-0.51-1.26-0.51-1.88   v-9.37c0-0.62,0.16-1.34,0.51-1.9c0.32-0.53,0.84-0.97,1.59-0.97c0.51,0,1.05,0.29,1.45,0.59c0.24,0.19,0.46,0.38,0.7,0.59v-6.02   h2.72V801.99L141.06,801.99z M138.35,790.52c0-0.43-0.41-0.89-0.8-0.89c-0.41,0-0.72,0.38-0.72,0.89v8.25   c0,0.51,0.32,0.89,0.72,0.89c0.41,0,0.8-0.38,0.8-0.89V790.52z M150.03,796.73v1.69c-0.08,1.42-0.51,2.41-1.47,3.2   c-0.48,0.41-1.16,0.59-2.04,0.59c-1.75,0-2.63-0.97-3.06-1.93c-0.24-0.56-0.41-1.21-0.43-1.93v-7.39c0.08-1.42,0.53-2.47,1.5-3.27   c0.46-0.41,1.13-0.59,2.02-0.59c1.75,0,2.63,0.97,3.06,1.91c0.24,0.56,0.41,1.18,0.43,1.88v4.27h-4.48v3.2   c0.03,0.56,0.19,0.97,0.43,1.26c0.14,0.14,0.32,0.22,0.56,0.22c0.51,0,0.75-0.32,0.86-0.72c0.08-0.22,0.11-0.46,0.11-0.75v-1.61   h2.53L150.03,796.73z M145.55,793.02h1.96v-2.07c0-0.56-0.11-0.96-0.38-1.29c-0.14-0.14-0.35-0.22-0.59-0.22   c-0.51,0-0.73,0.35-0.86,0.75c-0.08,0.22-0.11,0.46-0.14,0.75L145.55,793.02L145.55,793.02z M157.27,790.09   c-0.24-0.08-0.51-0.11-0.75-0.11c-0.43,0-0.94,0.05-1.37,0.46c-0.51,0.43-0.59,0.89-0.59,1.34v10.21h-2.72V787.3h2.72v1.64   c0.03-0.19,0.22-0.65,0.65-1.08c0.43-0.41,1.08-0.78,2.07-0.78V790.09z M158.45,801.99v-19.74h2.29c2.69,0,4.14,0.53,4.91,2.04   c0.75,1.5,0.86,3.98,0.86,7.85c0,3.87-0.11,6.31-0.86,7.82c-0.77,1.5-2.23,2.04-4.91,2.04H158.45z M161.35,799.09   c0.99,0,1.56-0.11,1.85-1.08c0.14-0.46,0.24-1.16,0.27-2.09c0.03-0.94,0.03-2.2,0.03-3.81s0-2.87-0.03-3.81   c-0.02-0.91-0.14-1.61-0.27-2.09c-0.29-0.94-0.86-1.05-1.85-1.05V799.09L161.35,799.09z M175.14,798.42   c-0.08,1.42-0.51,2.41-1.45,3.2c-0.48,0.41-1.16,0.59-2.04,0.59c-1.75,0-2.6-0.97-3.04-1.93c-0.24-0.56-0.41-1.21-0.43-1.93v-7.39   c0.08-1.42,0.51-2.47,1.45-3.27c0.46-0.41,1.13-0.59,2.02-0.59c1.75,0,2.63,0.97,3.06,1.91c0.24,0.56,0.41,1.18,0.43,1.88V798.42z    M172.59,790.95c0.03-0.56-0.08-0.96-0.35-1.29c-0.14-0.14-0.35-0.22-0.59-0.22c-0.51,0-0.73,0.35-0.84,0.75   c-0.08,0.22-0.11,0.46-0.08,0.75v7.39c-0.02,0.56,0.11,0.97,0.35,1.26c0.14,0.14,0.32,0.22,0.56,0.22c0.51,0,0.75-0.32,0.86-0.72   c0.08-0.22,0.11-0.46,0.08-0.75V790.95L172.59,790.95z M176.94,782.25h2.72v2.72h-2.72V782.25z M179.66,787.29v15.07   c0,0.75,0,1.93-0.38,2.9c-0.38,0.99-1.21,1.78-2.74,1.78c-0.43,0-0.72-0.03-0.91-0.08c-0.11-0.03-0.19-0.05-0.27-0.08v-2.5   c0.08,0.02,0.16,0.02,0.24,0.05c0.19,0.03,0.35,0.05,0.51,0.05c0.46,0,0.67-0.38,0.77-0.84c0.03-0.22,0.05-0.46,0.05-0.7   s0-0.46,0-0.62v-15.04H179.66z M188.51,798.41c-0.08,1.42-0.51,2.41-1.45,3.2c-0.48,0.41-1.16,0.59-2.04,0.59   c-1.75,0-2.6-0.97-3.04-1.93c-0.24-0.56-0.41-1.21-0.43-1.93v-7.39c0.08-1.42,0.51-2.47,1.45-3.27c0.46-0.41,1.13-0.59,2.02-0.59   c1.75,0,2.63,0.97,3.06,1.91c0.24,0.56,0.41,1.18,0.43,1.88V798.41z M185.96,790.94c0.03-0.56-0.08-0.96-0.35-1.29   c-0.14-0.14-0.35-0.22-0.59-0.22c-0.51,0-0.73,0.35-0.84,0.75c-0.08,0.22-0.11,0.46-0.08,0.75v7.39c-0.02,0.56,0.11,0.97,0.35,1.26   c0.14,0.14,0.32,0.22,0.56,0.22c0.51,0,0.75-0.32,0.86-0.72c0.08-0.22,0.11-0.46,0.08-0.75V790.94L185.96,790.94z"/>
	<g id="_836803312_1_">
		<circle id="circle13_1_" class="st0" cx="152.38" cy="755.76" r="21.44"/>
		<path id="path15_1_" d="M152.47,733.89c12.07,0,21.87,9.79,21.87,21.87c0,12.07-9.79,21.87-21.87,21.87    c-12.07,0-21.87-9.79-21.87-21.87C130.6,743.68,140.39,733.89,152.47,733.89z M152.25,735.02c-0.11,0-0.2,0-0.31,0.01    c-11.31,0.17-20.43,9.39-20.43,20.73c0,11.36,9.15,20.59,20.47,20.73c-5.6-0.14-10.1-4.73-10.1-10.37    c0-5.73,4.65-10.37,10.37-10.37c5.73,0,10.37-4.65,10.37-10.37C162.61,739.67,157.96,735.02,152.25,735.02L152.25,735.02z"/>
		<path id="path17_1_" d="M148.98,747.43v-7.73c0-0.34,0.12-0.63,0.37-0.87c0.25-0.25,0.54-0.37,0.88-0.37h4.03    c0.33,0,0.62,0.12,0.87,0.37c0.24,0.25,0.37,0.54,0.37,0.87v7.73c0,0.35-0.12,0.64-0.37,0.88c-0.24,0.24-0.53,0.37-0.88,0.37    h-4.01c-0.35,0-0.65-0.12-0.89-0.37C149.11,748.07,148.99,747.78,148.98,747.43L148.98,747.43z M154.21,747.38v-7.62h-3.93v7.62    H154.21z"/>
		<path id="path19_1_" class="st0" d="M150.44,770.8h1.99v-7.62h-1.96c-0.18,0-0.33-0.06-0.46-0.19c-0.13-0.13-0.19-0.28-0.19-0.46    s0.06-0.33,0.19-0.46c0.13-0.13,0.28-0.19,0.46-0.19h3.24v8.91h1.29v-2.69c0-0.17,0.06-0.32,0.19-0.45    c0.13-0.13,0.28-0.2,0.46-0.2s0.33,0.06,0.46,0.19c0.13,0.13,0.19,0.28,0.19,0.46v3.34c0,0.18-0.06,0.33-0.19,0.46    c-0.13,0.13-0.28,0.19-0.46,0.19h-5.21c-0.18,0-0.33-0.07-0.46-0.2c-0.13-0.13-0.19-0.29-0.19-0.47c0-0.17,0.06-0.32,0.19-0.44    C150.11,770.86,150.26,770.8,150.44,770.8z"/>
	</g>
</g>
<text transform="matrix(1 0 0 1 77.4326 217.6542)"><tspan x="0" y="0" class="st10 st11">Bavte se a buďte kreativní!</tspan><tspan x="0" y="32.4" class="st10 st11">Buďte připraveni se připojit pět minut </tspan><tspan x="0" y="48.6" class="st10 st11">před začátkem hodiny, </tspan><tspan x="0" y="64.8" class="st10 st11">abyste nemuseli spěchat.</tspan><tspan x="0" y="97.2" class="st10 st11">Řekněte dospělé osobě v domácnosti </tspan><tspan x="0" y="113.4" class="st10 st11">v kolik hodin se budete připojovat na </tspan><tspan x="0" y="129.6" class="st10 st11">hodinu. Můžete je pozvat, aby </tspan><tspan x="0" y="145.8" class="st10 st11">kódovali společně s vámi! </tspan><tspan x="0" y="178.2" class="st10 st11">Připojte se na hodinu přes link </tspan><tspan x="0" y="194.4" class="st10 st11">poslaný organizátorem vašeho klubu. Jestli </tspan><tspan x="0" y="210.6" class="st10 st11">vám není jasné jak se připojit na </tspan><tspan x="0" y="226.8" class="st10 st11">hodinu, zeptejte se </tspan><tspan x="0" y="243" class="st10 st11">dospělého v domácnosti. </tspan><tspan x="0" y="275.4" class="st10 st11">Pozorně poslouchejte </tspan><tspan x="0" y="291.6" class="st10 st11">instrukce organizátora </tspan><tspan x="0" y="307.8" class="st10 st11">klubu. Oni vám řeknou jak </tspan><tspan x="0" y="324" class="st10 st11">bude hodina probíhat, a co </tspan><tspan x="0" y="340.2" class="st10 st11">budete dělat.</tspan><tspan x="0" y="372.6" class="st10 st11">Jestli hodnotíte </tspan><tspan x="0" y="388.8" class="st10 st11">něčí projekt, buďte pozitivní </tspan><tspan x="0" y="405" class="st10 st11">a podporující. </tspan><tspan x="0" y="437.4" class="st10 st11">Promluvte si s dospělým, kterému důvěřujete </tspan><tspan x="0" y="453.6" class="st10 st11">pokud vám bylo cokoli </tspan><tspan x="0" y="469.8" class="st10 st11">v průběhu hodiny nepříjemné.</tspan></text>
<circle class="st5" cx="52.82" cy="213.21" r="11.72"/>
<text transform="matrix(1 0 0 1 351.433 215.6542)"><tspan x="0" y="0" class="st10 st11">Nebuďte nervózní pokud se zaseknete. Ptejte se </tspan><tspan x="0" y="16.2" class="st10 st11">na otázky pokud si něčím </tspan><tspan x="0" y="32.4" class="st10 st11">nejste jistí. </tspan><tspan x="0" y="64.8" class="st10 st11">Neskákejte ostatním do </tspan><tspan x="0" y="81" class="st10 st11">řeči. Je důležité být </tspan><tspan x="0" y="97.2" class="st10 st11">trpělivý a počkat než na vás přijde řada </tspan><tspan x="0" y="113.4" class="st10 st11">v průběhu online hodiny, tak ať má každý </tspan><tspan x="0" y="129.6" class="st10 st11">šanci se zúčastnit a zabavit.</tspan><tspan x="0" y="162" class="st10 st11">Nesdílejte své osobní </tspan><tspan x="0" y="178.2" class="st10 st11">informace online (jako jsou </tspan><tspan x="0" y="194.4" class="st10 st11">vaše adresa, telefonní číslo, nebo </tspan><tspan x="0" y="210.6" class="st10 st11">škola). Jestli vás někdo požádá o </tspan><tspan x="0" y="226.8" class="st10 st11">sdílení těchto informací online, </tspan><tspan x="0" y="243" class="st10 st11">řekněte to ihned </tspan><tspan x="0" y="259.2" class="st10 st11">dospělému.</tspan><tspan x="0" y="291.6" class="st10 st11">Nepořizujte fotografie, </tspan><tspan x="0" y="307.8" class="st10 st11">snímky obrazovky či záznamy </tspan><tspan x="0" y="324" class="st10 st11">z online hodin klubu.</tspan><tspan x="0" y="356.4" class="st10 st11">Nepřipojujte se na online hodinu ve vašem </tspan><tspan x="0" y="372.6" class="st10 st11">pyžamu! Mějte na sobě oblečení, </tspan><tspan x="0" y="388.8" class="st10 st11">ve kterém se cítíte pohodlně a </tspan><tspan x="0" y="405" class="st10 st11">připraveni se učit. </tspan></text>
<circle class="st12" cx="326.01" cy="220.15" r="11.72"/>
<polyline class="st13" points="46.37,214.59 51.66,218.37 59.27,208.05 "/>
<circle class="st5" cx="52.82" cy="253.21" r="11.72"/>
<polyline class="st13" points="46.37,254.59 51.66,258.37 59.27,248.05 "/>
<circle class="st5" cx="52.82" cy="319.21" r="11.72"/>
<polyline class="st13" points="46.37,320.59 51.66,324.37 59.27,314.05 "/>
<circle class="st5" cx="52.82" cy="400.21" r="11.72"/>
<polyline class="st13" points="46.37,401.59 51.66,405.37 59.27,395.05 "/>
<circle class="st5" cx="52.82" cy="498.21" r="11.72"/>
<polyline class="st13" points="46.37,499.59 51.66,503.37 59.27,493.05 "/>
<circle class="st5" cx="52.82" cy="594.21" r="11.72"/>
<polyline class="st13" points="46.37,595.59 51.66,599.37 59.27,589.05 "/>
<circle class="st5" cx="52.82" cy="659.21" r="11.72"/>
<polyline class="st13" points="46.37,660.59 51.66,664.37 59.27,654.05 "/>
<rect x="27.81" y="129.26" class="st5" width="267.64" height="48.65"/>
<text transform="matrix(1 0 0 1 129.4081 162.1789)" class="st0 st6 st14">Co dělat?</text>
<rect x="301.67" y="129.26" class="st12" width="267.64" height="48.65"/>
<text transform="matrix(1.0571 0 0 1 389.6734 162.1789)" class="st0 st6 st14">Co nedělat?</text>
<g>
	<line class="st13" x1="320.76" y1="224.93" x2="331.27" y2="215.36"/>
	<line class="st13" x1="331.24" y1="224.97" x2="320.79" y2="215.33"/>
</g>
<circle class="st12" cx="326.01" cy="284.15" r="11.72"/>
<g>
	<line class="st13" x1="320.76" y1="288.93" x2="331.27" y2="279.36"/>
	<line class="st13" x1="331.24" y1="288.97" x2="320.79" y2="279.33"/>
</g>
<circle class="st12" cx="326.01" cy="382.15" r="11.72"/>
<g>
	<line class="st13" x1="320.76" y1="386.93" x2="331.27" y2="377.36"/>
	<line class="st13" x1="331.24" y1="386.97" x2="320.79" y2="377.33"/>
</g>
<circle class="st12" cx="326.01" cy="511.15" r="11.72"/>
<g>
	<line class="st13" x1="320.76" y1="515.93" x2="331.27" y2="506.36"/>
	<line class="st13" x1="331.24" y1="515.97" x2="320.79" y2="506.33"/>
</g>
<circle class="st12" cx="326.01" cy="577.15" r="11.72"/>
<g>
	<line class="st13" x1="320.76" y1="581.93" x2="331.27" y2="572.36"/>
	<line class="st13" x1="331.24" y1="581.97" x2="320.79" y2="572.33"/>
</g>
<g>
	<g>
		<defs>
			<path id="XMLID_273_" d="M544.79,645.02c-1.63,58.02-28.11,112.55-72.71,149.7c-4.67-5.6-9.33-11.2-14-16.81     c39.78-33.13,63.39-81.76,64.85-133.5C530.21,644.61,537.5,644.81,544.79,645.02z"/>
		</defs>
		<use xlink:href="#XMLID_273_" style="overflow:visible;fill:#AE876F;"/>
		<clipPath id="XMLID_00000147904135982651176850000002988645686148336515_">
			<use xlink:href="#XMLID_273_" style="overflow:visible;"/>
		</clipPath>
		<path style="clip-path:url(#XMLID_00000147904135982651176850000002988645686148336515_);fill:#E6E7E5;" d="M517.42,664.28    l28.15,7.15l-32.82,98.22c0,0-16.63,4.94-16.76,4.04c-0.13-0.9-5.7-49.1-5.7-49.1L517.42,664.28z"/>
		<polygon style="clip-path:url(#XMLID_00000147904135982651176850000002988645686148336515_);fill:#0B1014;" points="508.7,673.83     547.2,685.18 492.19,804.27 442.95,791.16   "/>
	</g>
	<path class="st17" d="M522.52,652.43c3.9-8.08-15.06-16.9-11.47-21.84c3.6-4.94,9.93,2.62,10.96,1.14   c1.03-1.49-3.23-14.9,2.32-16.24s2.88,13.52,4.81,13.21s2.85-16.14,8-15.37c5.16,0.76-0.61,18.38,1.55,18.48s7.12-11.44,10.15-7.85   s-4.63,14.1-4.5,15.91s0.44,5.15,0.44,5.15S520.63,663.12,522.52,652.43z"/>
	<g>
		<defs>
			<path id="XMLID_272_" d="M292.53,705.87c27.9,50.9,76.33,87.35,132.96,100.08c1.6-7.11,3.2-14.23,4.8-21.34     c-50.51-11.35-93.7-43.86-118.58-89.26C305.32,698.86,298.92,702.36,292.53,705.87z"/>
		</defs>
		<use xlink:href="#XMLID_272_" style="overflow:visible;fill:#AE876F;"/>
		<clipPath id="XMLID_00000108275764791772293060000001861413590287362711_">
			<use xlink:href="#XMLID_272_" style="overflow:visible;"/>
		</clipPath>
		<path style="clip-path:url(#XMLID_00000108275764791772293060000001861413590287362711_);fill:#E6E7E5;" d="M325.67,710.53    l-21.79,19.19l73.99,72.46c0,0,17.06-3.19,16.76-4.04s-17.31-46.3-17.31-46.3L325.67,710.53z"/>
		<polygon style="clip-path:url(#XMLID_00000108275764791772293060000001861413590287362711_);fill:#0B1014;" points="    333.56,719.78 304.47,747.45 407.72,828.35 445.57,794.24   "/>
	</g>
	<path class="st17" d="M315.73,702.31c-7.16-5.42,5.7-21.91,0.25-24.66c-5.45-2.76-7.64,6.86-9.23,6.01   c-1.6-0.85-3.92-14.73-9.47-13.4c-5.55,1.34,3.61,13.35,1.74,13.95c-1.86,0.6-9.89-13.07-14.13-10.03s8.92,16.08,7.04,17.15   c-1.87,1.07-11.56-6.94-12.61-2.36c-1.06,4.58,10.55,10.44,11.26,12.11s1.96,4.79,1.96,4.79S322.28,710.96,315.73,702.31z"/>
	<path class="st28" d="M491.27,807.95l-77.76,18.76c-6.23,1.5-12.56-2.36-14.06-8.59l-15.11-62.62c-1.5-6.23,2.36-12.56,8.59-14.06   l77.76-18.76c6.23-1.5,12.56,2.36,14.06,8.59l15.11,62.62C501.37,800.12,497.5,806.45,491.27,807.95z"/>
	<g>
		<defs>
			<path id="XMLID_261_" d="M530.75,914.91l-37.54-155.63c-3.33-13.81-18.23-22.06-33.28-18.43l-46.38,11.19     c-15.05,3.63-24.55,17.77-21.22,31.58l24.87,103.1l13.67,56.67L530.75,914.91z"/>
		</defs>
		<use xlink:href="#XMLID_261_" style="overflow:visible;fill:#E5E5E5;"/>
		<clipPath id="XMLID_00000055669088284811954140000013640699039273161098_">
			<use xlink:href="#XMLID_261_" style="overflow:visible;"/>
		</clipPath>
	</g>
	<path class="st29" d="M440.19,769.82L440.19,769.82c-10.27,2.48-20.69-3.9-23.17-14.16l-2.9-12.02l37.33-9.01l2.9,12.02   C456.83,756.91,450.46,767.34,440.19,769.82z"/>
	<path class="st30" d="M474.67,723.05c5.7,2.47,20.1,3.23,22.57-2.47c2.47-5.7-7.91-15.7-13.61-18.17s-12.33,0.14-14.8,5.84   C466.36,713.95,468.97,720.57,474.67,723.05z"/>
	<path class="st31" d="M469.9,714.47l2.5-8.1c0.58-1.88-0.48-3.88-2.36-4.46l-2.04-0.63c-1.88-0.58-3.88,0.48-4.46,2.36l-2.5,8.1   c-0.58,1.88,0.48,3.88,2.36,4.46l2.04,0.63C467.31,717.4,469.32,716.34,469.9,714.47z"/>
	<path class="st30" d="M388.18,743.91c-3.95,4.8-16.42,12.04-21.22,8.09c-4.8-3.95-0.12-17.58,3.83-22.38   c3.95-4.8,11.04-5.49,15.84-1.55S392.12,739.11,388.18,743.91z"/>
	<path class="st31" d="M388.52,734.1l-5.92-6.07c-1.37-1.41-1.34-3.68,0.06-5.05l1.53-1.49c1.41-1.37,3.68-1.34,5.05,0.06l5.92,6.07   c1.37,1.41,1.34,3.68-0.06,5.05l-1.53,1.49C392.16,735.53,389.89,735.51,388.52,734.1z"/>
	<path class="st30" d="M467.05,699.1l-81.89,19.75c-2.46,0.59-4.91-0.75-5.45-2.98l-6.9-28.62c-5.47-22.68,10.49-46.17,35.47-52.19   h0c24.98-6.03,49.89,7.6,55.36,30.28l6.9,28.62C471.08,696.19,469.51,698.51,467.05,699.1z"/>
	
		<ellipse transform="matrix(0.9721 -0.2345 0.2345 0.9721 -156.372 109.1543)" class="st32" cx="380.8" cy="712.11" rx="11.38" ry="11.38"/>
	<path class="st33" d="M382.95,715.48L382.95,715.48c-0.19,0.25-0.54,0.3-0.79,0.11l-7.23-5.42c-0.25-0.19-0.3-0.54-0.11-0.79l0,0   c0.19-0.25,0.54-0.3,0.79-0.11l7.23,5.42C383.08,714.88,383.13,715.23,382.95,715.48z"/>
	<path class="st33" d="M376.37,716.85L376.37,716.85c0.27,0.15,0.62,0.06,0.77-0.21l4.46-7.86c0.15-0.27,0.06-0.62-0.21-0.77l0,0   c-0.27-0.15-0.62-0.06-0.77,0.21l-4.46,7.86C376.01,716.35,376.1,716.7,376.37,716.85z"/>
	
		<ellipse transform="matrix(0.9721 -0.2345 0.2345 0.9721 -149.0201 128.9833)" class="st32" cx="467.86" cy="691.11" rx="11.38" ry="11.38"/>
	<path class="st33" d="M467.48,695.09L467.48,695.09c0.28,0.14,0.62,0.02,0.76-0.26l3.96-8.12c0.14-0.28,0.02-0.62-0.26-0.75h0   c-0.28-0.14-0.62-0.02-0.76,0.26l-3.96,8.12C467.09,694.61,467.2,694.95,467.48,695.09z"/>
	<path class="st33" d="M473.96,693.31L473.96,693.31c-0.17,0.26-0.52,0.33-0.78,0.16l-7.55-4.96c-0.26-0.17-0.33-0.52-0.16-0.78v0   c0.17-0.26,0.52-0.33,0.78-0.16l7.55,4.96C474.06,692.7,474.13,693.05,473.96,693.31z"/>
	<g>
		<defs>
			<path id="XMLID_260_" d="M434.49,744.1L434.49,744.1c-22.7,5.48-45.59-7.95-50.87-29.84l-10.38-43.04l82.54-19.91l10.38,43.04     C471.44,716.24,457.19,738.63,434.49,744.1z"/>
		</defs>
		<use xlink:href="#XMLID_260_" style="overflow:visible;fill:#AE876F;"/>
		<clipPath id="XMLID_00000032650713995629470320000017324825802830016695_">
			<use xlink:href="#XMLID_260_" style="overflow:visible;"/>
		</clipPath>
		
			<ellipse transform="matrix(0.9721 -0.2345 0.2345 0.9721 -141.5108 126.5686)" style="clip-path:url(#XMLID_00000032650713995629470320000017324825802830016695_);fill:#21090F;" cx="461.46" cy="658.33" rx="2.76" ry="2.76"/>
	</g>
	
		<ellipse transform="matrix(0.9721 -0.2345 0.2345 0.9721 -155.4814 114.9353)" class="st24" cx="405.55" cy="711.26" rx="2.95" ry="4.62"/>
	
		<ellipse transform="matrix(0.9721 -0.2345 0.2345 0.9721 -152.1783 123.8439)" class="st24" cx="444.67" cy="701.82" rx="2.95" ry="4.62"/>
	<g>
		<g>
			<path class="st35" d="M398.41,701.17c-0.06,0.05,0.25-0.18,0.31-0.22c0.12-0.08,0.23-0.15,0.35-0.23     c0.28-0.17,0.56-0.33,0.85-0.48c0.17-0.08,0.33-0.16,0.5-0.24c-0.14,0.06,0.2-0.08,0.23-0.09c0.34-0.13,0.69-0.25,1.04-0.36     c1.33-0.41,2.71-0.65,4.08-0.89c0.64-0.11,1.06-0.93,0.87-1.53c-0.22-0.69-0.84-0.99-1.53-0.87c-3.03,0.53-6,1.19-8.46,3.14     c-0.51,0.4-0.46,1.34,0,1.76C397.2,701.67,397.87,701.6,398.41,701.17L398.41,701.17z"/>
		</g>
	</g>
	<g>
		<g>
			<path class="st35" d="M447.62,687.09c-3.08-0.6-6.06,0.2-8.99,1.1c-0.64,0.2-1.05,0.87-0.87,1.53c0.17,0.63,0.89,1.07,1.53,0.87     c2.49-0.77,5.14-1.6,7.67-1.1c0.64,0.12,1.37-0.18,1.53-0.87C448.63,688,448.31,687.22,447.62,687.09L447.62,687.09z"/>
		</g>
	</g>
	
		<ellipse transform="matrix(0.9948 -0.1021 0.1021 0.9948 -70.516 49.8293)" class="st36" cx="451.53" cy="713.79" rx="6.39" ry="4.01"/>
	
		<ellipse transform="matrix(0.9319 -0.3627 0.3627 0.9319 -235.3925 196.1903)" class="st36" cx="404.84" cy="725.05" rx="6.39" ry="4.01"/>
	<path class="st17" d="M390.1,691.86l1.27-8.91c0.07-0.47,0.68-0.62,0.95-0.22l5.09,7.37L390.1,691.86z"/>
	<path class="st30" d="M384.84,710.99L384.84,710.99c-1.47,0.36-2.97-0.56-3.33-2.03l-8.64-35.84c-0.36-1.47,0.56-2.97,2.03-3.33   l0,0c1.47-0.36,2.97,0.56,3.33,2.03l8.64,35.84C387.23,709.14,386.32,710.64,384.84,710.99z"/>
	<path class="st30" d="M461.46,685.51L461.46,685.51c-1.47,0.36-2.97-0.56-3.33-2.03l-3.6-14.93c-0.36-1.47,0.56-2.97,2.03-3.33l0,0   c1.47-0.36,2.97,0.56,3.33,2.03l3.6,14.93C463.85,683.65,462.94,685.15,461.46,685.51z"/>
	<circle class="st37" cx="378.26" cy="722.59" r="2.98"/>
	<circle class="st37" cx="472.46" cy="699.87" r="2.98"/>
	<path class="st30" d="M372.81,671.05c0,0,42.31,31.74,93.03,20.84l-9.51-41.39L372.81,671.05z"/>
	<g>
		<g>
			<path class="st38" d="M421.77,699.61c1.71,3.28,3.43,6.56,5.14,9.83c0.42,0.81,0.85,1.62,1.27,2.42     c0.07,0.14,0.61,1.22,0.63,1.21c0.04-0.12,0.08-0.25,0.12-0.37c-0.07,0.03-0.13,0.06-0.2,0.09c-0.2,0-0.47,0.17-0.65,0.24     c-1.66,0.55-3.37,0.67-5.1,0.46c-0.53-0.07-0.97,0.49-0.97,0.97c-0.01,0.58,0.45,0.91,0.97,0.97c2.01,0.25,4.1,0.04,6.01-0.67     c0.8-0.3,1.7-0.66,1.78-1.63c0.08-0.9-0.72-1.91-1.12-2.67c-2.07-3.95-4.13-7.9-6.2-11.85     C422.87,697.51,421.19,698.5,421.77,699.61L421.77,699.61z"/>
		</g>
	</g>
	<g>
		<defs>
			<path id="XMLID_259_" d="M440.2,717.75c1.4,5.8-2.92,11.81-9.66,13.43s-13.32-1.76-14.72-7.56L440.2,717.75z"/>
		</defs>
		<use xlink:href="#XMLID_259_" style="overflow:visible;fill:#131718;"/>
		<clipPath id="XMLID_00000018942499816413043910000017252468471732148413_">
			<use xlink:href="#XMLID_259_" style="overflow:visible;"/>
		</clipPath>
		<path style="clip-path:url(#XMLID_00000018942499816413043910000017252468471732148413_);fill:#FFFFFF;" d="M437.06,721.75    l-16.77,4.04c-0.84,0.2-1.68-0.31-1.88-1.15l-0.63-2.61l19.8-4.78l0.63,2.61C438.42,720.7,437.9,721.55,437.06,721.75z"/>
		
			<ellipse transform="matrix(0.9721 -0.2345 0.2345 0.9721 -160.0789 120.5576)" style="clip-path:url(#XMLID_00000018942499816413043910000017252468471732148413_);fill:#EC7FB2;" cx="426.9" cy="733.4" rx="8.47" ry="4.8"/>
	</g>
	<path class="st23" d="M441.31,898.74l-21.25,5.13c-3.11,0.75-6.23-1.16-6.98-4.27l-27.41-113.62c-3.43-14.2,5.31-28.49,19.51-31.92   l6.79-1.64l33.61,139.33C446.33,894.86,444.41,897.99,441.31,898.74z"/>
	<path class="st23" d="M502.78,883.91l20.54-4.95c2.92-0.7,4.71-3.64,4.01-6.55l-27.61-114.45c-3.35-13.89-17.32-22.43-31.21-19.08   l-5.96,1.44l33.67,139.6C496.93,882.82,499.86,884.61,502.78,883.91z"/>
	<path class="st41" d="M410.53,859.09L410.53,859.09c-4.17,1.01-8.41-1.58-9.42-5.76l-21.25-88.08c-0.63-2.61,0.98-5.23,3.58-5.86   l10.46-2.52l22.39,92.8C417.29,853.85,414.7,858.08,410.53,859.09z"/>
	<path class="st41" d="M510.4,835L510.4,835c4.17-1.01,6.77-5.25,5.76-9.42l-21.25-88.08c-0.63-2.61-3.25-4.21-5.86-3.58   l-10.46,2.52l22.39,92.8C501.99,833.41,506.23,836.01,510.4,835z"/>
	
		<rect x="486.52" y="799.89" transform="matrix(0.9721 -0.2345 0.2345 0.9721 -183.1608 137.748)" class="st25" width="2.25" height="78.32"/>
	
		<rect x="433.95" y="812.57" transform="matrix(0.9721 -0.2345 0.2345 0.9721 -187.6002 125.7746)" class="st25" width="2.25" height="78.32"/>
	<path class="st24" d="M412.64,752.35l-19.35,26.61c-2.03,2.79-1.38,5.88,1.6,7.53l29.23,16.21L412.64,752.35z"/>
	<path class="st24" d="M418.33,777.53l-15.1,24.98c-1.61,2.69-0.94,5.78,1.63,7.52l25.27,17.17L418.33,777.53z"/>
	<path class="st24" d="M462.64,740.2L492,755.06c3.08,1.56,3.91,4.61,2.01,7.43l-18.62,27.76L462.64,740.2z"/>
	<path class="st24" d="M468.21,763.28l25.18,17.4c2.66,1.66,3.47,4.71,1.98,7.44l-14.67,26.8L468.21,763.28z"/>
	<circle class="st43" cx="474.25" cy="756.73" r="4.97"/>
	<circle class="st0" cx="477.15" cy="768.76" r="3.58"/>
	<circle class="st44" cx="484.68" cy="763.01" r="3.58"/>
	<path class="st45" d="M510.47,839.76c0,0,2.35,14.5-7.15,23.05"/>
	<polygon class="st30" points="374.5,674.25 380.48,673.2 443.45,692.25 463.66,688.93 461.73,677.72 464.85,677.75 460.42,659.36    453.17,648.66 442.57,643.43 381.2,653.57 375.03,666.73  "/>
</g>
<rect x="314.08" y="815.13" class="st46" width="67.17" height="13.34"/>
<text transform="matrix(1 0 0 1 28.8091 824.4096)"><tspan x="0" y="0" class="st10 st47">Code Club a CoderDojo jsou částí Raspberry Pi Foundation, charity zaregistrované ve Velké Británii číslo 1129409  </tspan><tspan x="286.07" y="0" class="st0 st10 st47"> </tspan><tspan x="287.7" y="0" class="st0 st48 st47">www.raspberrypi.org</tspan></text>
<g>
	<path class="st49" d="M525.49,815.89h-0.88v1.86c0,0.06-0.05,0.1-0.11,0.1h-0.89c-0.06,0-0.1-0.04-0.11-0.1v-5.14   c0-0.06,0.05-0.11,0.11-0.11h1.88c0.63,0,1.12,0.14,1.46,0.42s0.51,0.68,0.51,1.19c0.01,0.32-0.07,0.64-0.24,0.91   c-0.18,0.26-0.42,0.46-0.71,0.59l1.1,2.09c0.02,0.05,0,0.12-0.06,0.14c-0.01,0-0.02,0.01-0.04,0.01h-0.97   c-0.05,0-0.09-0.03-0.11-0.07L525.49,815.89z M524.62,814.99h0.89c0.23,0.01,0.47-0.06,0.65-0.22c0.16-0.15,0.24-0.36,0.23-0.58   c0.01-0.22-0.07-0.43-0.22-0.59c-0.14-0.14-0.36-0.22-0.66-0.22h-0.89V814.99z"/>
	<path class="st49" d="M530.42,817.78c-0.04-0.1-0.06-0.19-0.08-0.3c-0.25,0.28-0.62,0.44-1,0.43c-0.35,0.01-0.7-0.11-0.97-0.34   c-0.25-0.21-0.39-0.52-0.38-0.85c-0.02-0.38,0.16-0.75,0.47-0.97c0.31-0.23,0.76-0.34,1.35-0.34h0.49v-0.23   c0.01-0.16-0.04-0.32-0.14-0.44c-0.12-0.12-0.28-0.18-0.45-0.17c-0.15-0.01-0.3,0.04-0.42,0.13c-0.08,0.07-0.13,0.16-0.15,0.27   c-0.01,0.05-0.05,0.09-0.1,0.08h-0.86c-0.06,0-0.11-0.05-0.11-0.11c0,0,0-0.01,0-0.01c0.02-0.19,0.09-0.37,0.21-0.52   c0.15-0.21,0.36-0.37,0.6-0.46c0.28-0.12,0.58-0.17,0.88-0.17c0.49,0,0.88,0.12,1.17,0.37c0.29,0.25,0.43,0.59,0.43,1.04v1.72   c-0.01,0.26,0.03,0.52,0.12,0.77c0.02,0.06,0,0.12-0.06,0.14c-0.01,0-0.02,0.01-0.03,0.01h-0.88   C530.48,817.84,530.44,817.82,530.42,817.78z M529.57,817.11c0.15,0,0.3-0.04,0.43-0.11c0.12-0.06,0.23-0.16,0.29-0.28v-0.68h-0.39   c-0.53,0-0.81,0.18-0.85,0.55v0.06c0,0.12,0.05,0.24,0.14,0.32C529.3,817.06,529.44,817.11,529.57,817.11z"/>
	<path class="st49" d="M534.26,816.75c0-0.13-0.08-0.25-0.19-0.31c-0.2-0.1-0.4-0.16-0.62-0.2c-0.94-0.2-1.42-0.6-1.42-1.2   c0-0.35,0.16-0.68,0.44-0.88c0.29-0.24,0.68-0.35,1.15-0.35c0.5,0,0.91,0.12,1.21,0.36c0.26,0.19,0.43,0.49,0.45,0.82   c0,0.06-0.04,0.1-0.09,0.11c0,0-0.01,0-0.01,0h-0.86c-0.05,0-0.09-0.04-0.1-0.09c-0.01-0.11-0.06-0.21-0.14-0.29   c-0.12-0.11-0.29-0.16-0.45-0.15c-0.15-0.01-0.29,0.04-0.41,0.12c-0.09,0.07-0.15,0.19-0.15,0.31c0,0.12,0.06,0.23,0.17,0.29   c0.18,0.09,0.37,0.16,0.56,0.19c0.23,0.04,0.45,0.1,0.67,0.18c0.56,0.21,0.84,0.56,0.84,1.07c0.01,0.35-0.17,0.69-0.47,0.88   c-0.31,0.22-0.71,0.34-1.2,0.34c-0.31,0.01-0.61-0.05-0.89-0.18c-0.24-0.11-0.45-0.27-0.61-0.49c-0.12-0.16-0.19-0.35-0.22-0.55   c0-0.06,0.04-0.11,0.1-0.12c0,0,0.01,0,0.01,0h0.81c0.05,0,0.09,0.03,0.1,0.08c0.02,0.14,0.09,0.27,0.2,0.35   c0.15,0.11,0.34,0.16,0.52,0.15c0.16,0.01,0.32-0.03,0.46-0.12C534.2,816.98,534.26,816.87,534.26,816.75z"/>
	<path class="st49" d="M539.5,815.89c0,0.61-0.14,1.1-0.42,1.47c-0.26,0.36-0.68,0.57-1.13,0.55c-0.37,0.01-0.73-0.14-0.97-0.42   v1.77c0,0.06-0.05,0.11-0.11,0.11h-0.86c-0.06,0-0.11-0.05-0.11-0.11v-5.3c0-0.06,0.05-0.1,0.11-0.1h0.79   c0.05,0,0.1,0.04,0.11,0.09l0.03,0.3c0.25-0.3,0.62-0.47,1.01-0.46c0.45-0.02,0.88,0.18,1.14,0.54c0.27,0.36,0.41,0.86,0.41,1.5   V815.89z M538.44,815.82c0-0.37-0.06-0.66-0.2-0.86c-0.12-0.2-0.34-0.31-0.57-0.3c-0.33,0-0.56,0.13-0.69,0.38v1.63   c0.13,0.26,0.36,0.39,0.69,0.39C538.19,817.06,538.44,816.65,538.44,815.82L538.44,815.82z"/>
	<path class="st49" d="M543.7,815.89c0,0.64-0.14,1.13-0.41,1.49c-0.27,0.36-0.69,0.56-1.14,0.54c-0.4,0.01-0.79-0.17-1.03-0.49   l-0.04,0.33c-0.01,0.05-0.05,0.09-0.11,0.09h-0.76c-0.06,0-0.1-0.05-0.1-0.1v-5.44c0-0.06,0.04-0.1,0.1-0.11h0.86   c0.06,0,0.1,0.05,0.1,0.11v1.92c0.24-0.28,0.6-0.44,0.97-0.43c0.45-0.02,0.87,0.18,1.14,0.54c0.28,0.36,0.41,0.86,0.41,1.51   L543.7,815.89z M542.64,815.82c0-0.4-0.06-0.69-0.19-0.88c-0.13-0.19-0.34-0.29-0.57-0.28c-0.34,0-0.57,0.14-0.7,0.42v1.57   c0.13,0.28,0.36,0.42,0.71,0.42s0.57-0.17,0.68-0.51C542.63,816.31,542.65,816.07,542.64,815.82L542.64,815.82z"/>
	<path class="st49" d="M546.13,817.92c-0.58,0-1.06-0.18-1.42-0.54s-0.55-0.84-0.55-1.43v-0.11c-0.01-0.37,0.07-0.74,0.23-1.07   c0.14-0.3,0.37-0.55,0.66-0.73c0.29-0.17,0.63-0.26,0.97-0.26c0.54,0,0.97,0.17,1.28,0.51c0.31,0.34,0.47,0.83,0.47,1.46v0.33   c0,0.06-0.04,0.1-0.1,0.11h-2.42c0.02,0.24,0.13,0.46,0.31,0.62c0.18,0.16,0.42,0.24,0.66,0.24c0.33,0.01,0.66-0.12,0.89-0.36   c0.04-0.04,0.11-0.04,0.15,0.01l0.39,0.43c0.03,0.04,0.04,0.09,0.01,0.13c-0.16,0.2-0.36,0.36-0.59,0.46   C546.76,817.85,546.45,817.92,546.13,817.92z M546.01,814.66c-0.19-0.01-0.38,0.07-0.51,0.22c-0.14,0.17-0.23,0.39-0.25,0.61h1.48   v-0.09c0.01-0.2-0.06-0.4-0.19-0.55C546.4,814.72,546.21,814.65,546.01,814.66z"/>
	<path class="st49" d="M550.6,814.75c0,0.06-0.05,0.1-0.11,0.1c-0.09-0.01-0.18-0.02-0.27-0.02c-0.4,0-0.66,0.14-0.79,0.41v2.5   c0,0.06-0.05,0.1-0.11,0.1h-0.86c-0.06,0-0.1-0.04-0.11-0.1v-3.76c0-0.06,0.05-0.1,0.11-0.1h0.8c0.06,0,0.1,0.04,0.11,0.1   l0.02,0.38c0.22-0.37,0.51-0.55,0.89-0.55c0.09,0,0.17,0.01,0.25,0.03c0.05,0.01,0.08,0.05,0.08,0.1L550.6,814.75z"/>
	<path class="st49" d="M553.28,814.75c0,0.06-0.05,0.1-0.1,0.1c0,0,0,0-0.01,0c-0.1-0.01-0.19-0.02-0.27-0.02   c-0.4,0-0.66,0.14-0.79,0.41v2.5c0,0.06-0.05,0.1-0.11,0.1h-0.86c-0.06,0-0.1-0.04-0.11-0.1v-3.76c0-0.06,0.05-0.1,0.11-0.1h0.8   c0.06,0,0.1,0.04,0.11,0.1l0.02,0.38c0.22-0.37,0.51-0.55,0.89-0.55c0.09,0,0.17,0.01,0.25,0.03c0.05,0.01,0.08,0.05,0.08,0.1   L553.28,814.75z"/>
	<path class="st49" d="M555.42,816.34l0.71-2.4c0.01-0.04,0.05-0.07,0.1-0.07h0.92c0.06,0,0.1,0.05,0.1,0.11c0,0.01,0,0.02,0,0.02   l-1.55,4.45l-0.09,0.21c-0.24,0.52-0.63,0.78-1.18,0.78c-0.13,0-0.26-0.02-0.39-0.05c-0.05-0.01-0.08-0.05-0.08-0.1v-0.62   c0-0.06,0.05-0.11,0.11-0.11h0.11c0.14,0.01,0.28-0.02,0.4-0.1c0.11-0.07,0.19-0.18,0.23-0.31l0.12-0.32l-1.35-3.84   c-0.02-0.06,0.02-0.12,0.07-0.13c0.01,0,0.02,0,0.02,0h0.92c0.05,0,0.08,0.03,0.1,0.07L555.42,816.34z"/>
	<path class="st49" d="M560.76,815.96v1.78c0,0.06-0.05,0.1-0.1,0.1h-0.89c-0.06,0-0.1-0.04-0.11-0.1v-5.14   c0-0.06,0.05-0.11,0.11-0.11h1.98c0.37-0.01,0.73,0.07,1.06,0.22c0.29,0.13,0.54,0.35,0.7,0.63c0.17,0.28,0.25,0.6,0.25,0.92   c0,0.52-0.18,0.94-0.54,1.24c-0.36,0.3-0.86,0.45-1.49,0.45L560.76,815.96z M560.76,815.07h0.98c0.29,0,0.51-0.07,0.67-0.21   c0.16-0.15,0.24-0.37,0.23-0.59c0.01-0.23-0.07-0.46-0.23-0.63c-0.17-0.17-0.4-0.26-0.64-0.25h-1.01V815.07z"/>
	<path class="st49" d="M564.27,812.84c0-0.15,0.05-0.29,0.16-0.39c0.25-0.21,0.62-0.21,0.87,0c0.22,0.22,0.22,0.57,0,0.79   c-0.25,0.2-0.61,0.2-0.86,0C564.33,813.14,564.27,812.99,564.27,812.84z M565.3,817.84h-0.86c-0.06,0-0.1-0.04-0.11-0.1v-3.76   c0-0.06,0.05-0.1,0.11-0.1h0.86c0.06,0,0.1,0.04,0.11,0.1v3.76C565.4,817.8,565.36,817.84,565.3,817.84z"/>
	<path class="st49" d="M552.35,799.95c-0.09-0.94-0.51-1.77-1.11-2.21c-0.1-0.37-0.27-0.71-0.51-1c-0.04-0.44-0.22-1.31-1.09-2.07   c0.1-0.09,0.19-0.19,0.25-0.31c0.73-0.32,1.24-1.01,1.3-1.51c0.39-0.39,0.61-0.85,0.63-1.3c0.01-0.2-0.03-0.4-0.11-0.59   c0.32-0.35,0.43-0.75,0.29-1.15c-0.22-0.63-0.98-1.04-2-1.08c-0.28-0.25-0.66-0.39-1.12-0.39c-0.2,0-0.4,0.03-0.6,0.07   c-0.19-0.08-0.39-0.12-0.59-0.12c-0.4,0-0.78,0.11-1.13,0.31c-0.05-0.01-0.09-0.01-0.14-0.01c-0.51,0-1.01,0.35-1.27,0.56   c-0.25,0.2-0.47,0.44-0.67,0.7c-0.19-0.26-0.42-0.49-0.67-0.69c-0.26-0.22-0.76-0.56-1.27-0.56c-0.05,0-0.09,0-0.14,0.01   c-0.34-0.2-0.73-0.3-1.13-0.31c-0.2,0-0.41,0.04-0.59,0.12c-0.2-0.05-0.4-0.07-0.6-0.07c-0.46,0-0.84,0.13-1.11,0.38   c-1.02,0.04-1.78,0.45-2,1.08c-0.13,0.4-0.03,0.81,0.3,1.15c-0.08,0.18-0.12,0.38-0.11,0.59c0.02,0.46,0.24,0.92,0.63,1.3   c0.06,0.51,0.57,1.18,1.3,1.51c0.07,0.12,0.15,0.22,0.25,0.31c-0.87,0.76-1.06,1.63-1.09,2.07c-0.24,0.29-0.42,0.64-0.52,1   c-0.6,0.44-1.02,1.27-1.11,2.21c-0.09,0.94,0.17,1.8,0.69,2.35c0.09,0.47,0.29,0.91,0.57,1.3c0.06,0.73,0.36,1.43,0.85,1.97   c0.49,0.56,1.15,0.96,1.88,1.12c0.44,0.41,0.95,0.72,1.51,0.93c0.27,0.27,1.06,0.93,2.37,0.93s2.1-0.65,2.37-0.93   c0.56-0.21,1.07-0.53,1.51-0.93c0.73-0.16,1.39-0.55,1.88-1.12c0.49-0.55,0.79-1.24,0.85-1.97c0.28-0.39,0.47-0.83,0.57-1.3   C552.19,801.75,552.44,800.88,552.35,799.95z"/>
	<path class="st50" d="M546.4,789.66c0.04-0.02,0.09,0.01,0.1,0.05c0,0.01,0.01,0.03,0,0.04c-0.03,0.24,0.12,0.22,0.15,0.17   c0.38-0.47,0.78-0.58,1.14-0.55c0.04,0,0.08,0.04,0.07,0.09c0,0.02-0.01,0.03-0.02,0.04c-0.14,0.22,0.01,0.25,0.07,0.22   c0.58-0.37,1.14-0.37,1.35-0.22c0.04,0.03,0.04,0.08,0.02,0.11c0,0-0.01,0.01-0.01,0.01c-0.22,0.18-0.1,0.28-0.02,0.25   c0.59-0.21,1.41-0.02,1.7,0.22c0.03,0.03,0.04,0.08,0.01,0.12c0,0,0,0-0.01,0.01c-0.36,0.32-0.54,0.58-0.62,1.08   c-0.02,0.14,0.22,0.11,0.32,0.09c0.04-0.01,0.09,0.01,0.1,0.06c0,0.01,0,0.01,0,0.02c0.01,0.34-0.31,0.72-0.79,1.04   c-0.06,0.04-0.05,0.15,0.09,0.15c0.04,0,0.08,0.03,0.08,0.08c0,0.01,0,0.03-0.01,0.04c-0.17,0.32-0.4,0.62-1.2,0.82   c-0.04,0.01-0.07,0.06-0.06,0.1c0.01,0.02,0.02,0.04,0.05,0.05c0.04,0.01,0.07,0.05,0.05,0.1c0,0.02-0.02,0.03-0.03,0.04   c-0.79,0.68-2.79,0.41-3.04-0.73c-0.01-0.02,0-0.05,0.01-0.06c0.47-0.63,1.57-1.86,3.31-2.52c0.03-0.01,0.05-0.05,0.03-0.08   c-0.01-0.03-0.04-0.04-0.06-0.04c-1.44,0.21-2.74,1-3.6,2.18c-0.02,0.03-0.07,0.04-0.11,0.02   C544.21,791.96,545.26,790.01,546.4,789.66z"/>
	<path class="st50" d="M538.86,792.76c-0.02-0.04-0.01-0.09,0.03-0.11c0.01-0.01,0.03-0.01,0.04-0.01c0.15,0,0.16-0.11,0.09-0.15   c-0.48-0.32-0.8-0.69-0.79-1.04c0-0.04,0.04-0.08,0.08-0.08c0.01,0,0.01,0,0.02,0c0.1,0.02,0.33,0.05,0.32-0.09   c-0.08-0.5-0.26-0.76-0.62-1.08c-0.03-0.03-0.04-0.08-0.01-0.11c0,0,0.01-0.01,0.01-0.01c0.29-0.24,1.1-0.43,1.7-0.22   c0.08,0.03,0.2-0.06-0.02-0.25c-0.03-0.03-0.04-0.08-0.01-0.11c0,0,0.01-0.01,0.01-0.01c0.22-0.15,0.77-0.15,1.35,0.22   c0.06,0.04,0.22,0,0.07-0.22c-0.03-0.04-0.02-0.09,0.01-0.11c0.01-0.01,0.03-0.02,0.04-0.02c0.36-0.03,0.76,0.08,1.14,0.55   c0.03,0.04,0.18,0.07,0.15-0.17c0-0.04,0.03-0.08,0.07-0.09c0.01,0,0.02,0,0.03,0c1.14,0.35,2.19,2.3,0.91,2.96   c-0.04,0.02-0.08,0.01-0.11-0.02c-0.86-1.18-2.16-1.96-3.6-2.17c-0.03,0-0.07,0.02-0.07,0.06c0,0.03,0.01,0.05,0.04,0.06   c1.74,0.65,2.84,1.89,3.32,2.53c0.01,0.02,0.02,0.04,0.02,0.06c-0.25,1.14-2.26,1.41-3.05,0.73c-0.03-0.03-0.04-0.08-0.01-0.11   c0.01-0.01,0.02-0.02,0.04-0.03c0.04-0.02,0.06-0.07,0.04-0.11c-0.01-0.02-0.03-0.04-0.05-0.05   C539.26,793.38,539.03,793.08,538.86,792.76z"/>
	<path class="st51" d="M549.55,796.25c0.33,0.88,0.07,1.29-0.71,0.85c-0.63-0.35-1.19-0.82-1.64-1.37c-0.59-0.7-0.21-1.01,0.72-0.84   C548.64,795.07,549.23,795.57,549.55,796.25z"/>
	<path class="st51" d="M546.04,795.27c1.12,0.93-0.16,1.58-1.55,1.58c-1.39,0-2.67-0.66-1.55-1.58   C543.84,794.53,545.14,794.53,546.04,795.27z"/>
	<path class="st51" d="M539.43,796.25c0.31-0.67,0.91-1.17,1.63-1.37c0.93-0.17,1.31,0.14,0.72,0.84c-0.45,0.56-1.01,1.03-1.64,1.37   C539.36,797.55,539.11,797.12,539.43,796.25z"/>
	<path class="st51" d="M537.82,801.11c-0.26-0.7-0.19-1.48,0.18-2.13c0.41-0.7,0.83-0.67,0.99-0.08c0.21,0.82,0.13,1.69-0.22,2.46   C538.48,801.97,538.1,801.77,537.82,801.11z"/>
	<path class="st51" d="M540.79,805.66c-0.99-0.21-1.83-1.2-1.87-2.22C539.08,799.84,544.28,806.27,540.79,805.66z"/>
	<path class="st51" d="M540.9,801.17c-0.87-0.5-1.1-1.73-0.51-2.75c0.59-1.02,1.77-1.43,2.64-0.93s1.1,1.73,0.51,2.75   C542.95,801.26,541.77,801.67,540.9,801.17z"/>
	<path class="st51" d="M545.94,807.03c-0.87,0.63-2.04,0.63-2.9,0c-0.86-0.6,0-1.28,1.45-1.28S546.8,806.43,545.94,807.03z"/>
	<ellipse class="st51" cx="544.49" cy="803.12" rx="2.02" ry="1.73"/>
	<path class="st51" d="M545.44,800.24c-0.59-1.02-0.36-2.25,0.51-2.75c0.87-0.5,2.05-0.09,2.64,0.93c0.59,1.02,0.36,2.25-0.51,2.75   C547.21,801.67,546.03,801.26,545.44,800.24z"/>
	<path class="st51" d="M548.18,805.66c-3.48,0.61,1.71-5.82,1.87-2.22C550.01,804.45,549.17,805.45,548.18,805.66z"/>
	<path class="st51" d="M551.16,801.11c-0.28,0.65-0.66,0.86-0.97,0.25c-0.35-0.77-0.42-1.64-0.22-2.46   c0.16-0.59,0.58-0.62,0.99,0.08C551.35,799.63,551.42,800.41,551.16,801.11z"/>
	<path class="st49" d="M529.59,823.52h-2.24v2.37h-0.71v-5.35h3.32v0.58h-2.61v1.83h2.24V823.52z"/>
	<path class="st49" d="M530.31,823.86c-0.01-0.36,0.07-0.72,0.23-1.05c0.14-0.3,0.36-0.55,0.64-0.72c0.28-0.17,0.61-0.26,0.94-0.25   c0.5-0.02,0.98,0.19,1.31,0.56c0.33,0.38,0.5,0.87,0.5,1.5v0.05c0.01,0.36-0.07,0.72-0.22,1.04c-0.14,0.3-0.36,0.55-0.64,0.72   c-0.29,0.18-0.62,0.26-0.96,0.26c-0.5,0.02-0.98-0.19-1.31-0.56c-0.33-0.37-0.5-0.87-0.5-1.49L530.31,823.86z M531,823.94   c0,0.44,0.11,0.79,0.31,1.06c0.35,0.45,1.01,0.53,1.46,0.18c0.07-0.05,0.13-0.12,0.18-0.18c0.2-0.27,0.31-0.65,0.31-1.14   c0-0.44-0.1-0.79-0.31-1.06c-0.19-0.26-0.5-0.41-0.82-0.41c-0.32-0.01-0.62,0.14-0.81,0.4C531.1,823.06,531,823.44,531,823.94z"/>
	<path class="st49" d="M537.13,825.49c-0.26,0.31-0.65,0.47-1.17,0.47c-0.42,0-0.75-0.12-0.97-0.37c-0.22-0.25-0.33-0.61-0.34-1.09   v-2.58h0.68v2.57c0,0.6,0.24,0.9,0.73,0.9c0.52,0,0.86-0.19,1.04-0.58v-2.9h0.68v3.97h-0.65L537.13,825.49z"/>
	<path class="st49" d="M539.36,821.9l0.02,0.5c0.28-0.37,0.72-0.58,1.19-0.57c0.84,0,1.26,0.47,1.27,1.42v2.63h-0.68v-2.63   c0-0.29-0.07-0.5-0.2-0.64s-0.33-0.21-0.6-0.21c-0.21,0-0.41,0.06-0.58,0.18c-0.17,0.12-0.3,0.28-0.39,0.46v2.83h-0.68v-3.97   H539.36z"/>
	<path class="st49" d="M542.58,823.86c0-0.61,0.14-1.1,0.43-1.47c0.51-0.64,1.44-0.74,2.07-0.24c0.06,0.05,0.12,0.1,0.17,0.16v-2.07   h0.68v5.64h-0.62l-0.03-0.43c-0.27,0.34-0.65,0.5-1.13,0.5c-0.45,0.01-0.87-0.2-1.13-0.57c-0.29-0.38-0.43-0.87-0.43-1.48   L542.58,823.86z M543.26,823.94c0,0.45,0.09,0.8,0.28,1.06c0.18,0.25,0.47,0.39,0.77,0.38c0.4,0.02,0.78-0.21,0.94-0.58v-1.83   c-0.17-0.36-0.54-0.58-0.94-0.56c-0.31-0.01-0.6,0.13-0.78,0.39C543.35,823.05,543.26,823.43,543.26,823.94L543.26,823.94z"/>
	<path class="st49" d="M549.35,825.88c-0.05-0.13-0.09-0.27-0.1-0.42c-0.29,0.32-0.7,0.5-1.13,0.49c-0.35,0.01-0.7-0.1-0.97-0.33   c-0.25-0.21-0.38-0.52-0.38-0.84c-0.02-0.38,0.16-0.75,0.47-0.97c0.32-0.23,0.76-0.34,1.33-0.34h0.66v-0.31   c0.01-0.21-0.07-0.42-0.22-0.57c-0.17-0.15-0.4-0.23-0.63-0.22c-0.22-0.01-0.43,0.06-0.61,0.18c-0.15,0.1-0.24,0.27-0.25,0.45   h-0.68c0.01-0.21,0.08-0.41,0.22-0.58c0.15-0.19,0.35-0.34,0.57-0.44c0.25-0.11,0.52-0.16,0.8-0.16c0.46,0,0.82,0.11,1.08,0.34   c0.26,0.24,0.41,0.59,0.4,0.95v1.83c-0.01,0.3,0.04,0.59,0.14,0.87v0.06L549.35,825.88z M548.22,825.36c0.21,0,0.42-0.06,0.61-0.17   c0.18-0.1,0.32-0.25,0.42-0.43v-0.82h-0.54c-0.83,0-1.25,0.24-1.25,0.73c-0.01,0.19,0.07,0.38,0.22,0.5   C547.82,825.31,548.02,825.37,548.22,825.36z"/>
	<path class="st49" d="M551.83,820.94v0.96h0.74v0.52h-0.74v2.47c-0.01,0.13,0.03,0.25,0.1,0.36c0.09,0.09,0.21,0.13,0.34,0.12   c0.11,0,0.22-0.02,0.32-0.05v0.55c-0.17,0.05-0.35,0.07-0.52,0.07c-0.3,0-0.53-0.09-0.69-0.28c-0.15-0.18-0.23-0.45-0.23-0.78   v-2.47h-0.72v-0.52h0.72v-0.96H551.83z"/>
	<path class="st49" d="M553.3,820.85c0-0.1,0.03-0.2,0.1-0.28c0.08-0.08,0.19-0.12,0.3-0.11c0.11-0.01,0.22,0.03,0.3,0.11   c0.07,0.08,0.11,0.18,0.11,0.28c0,0.1-0.04,0.2-0.11,0.28c-0.08,0.08-0.19,0.12-0.3,0.11c-0.11,0.01-0.22-0.03-0.3-0.11   C553.33,821.05,553.29,820.95,553.3,820.85z M554.03,825.88h-0.68v-3.97h0.68V825.88z"/>
	<path class="st49" d="M554.86,823.86c-0.01-0.36,0.07-0.72,0.23-1.05c0.14-0.3,0.36-0.55,0.64-0.72c0.28-0.17,0.61-0.26,0.93-0.25   c0.5-0.02,0.98,0.19,1.31,0.56c0.33,0.38,0.5,0.87,0.5,1.5v0.05c0.01,0.36-0.07,0.72-0.22,1.04c-0.14,0.3-0.36,0.55-0.64,0.72   c-0.29,0.17-0.62,0.26-0.95,0.26c-0.5,0.02-0.98-0.19-1.31-0.56c-0.33-0.37-0.5-0.87-0.5-1.49V823.86z M555.55,823.94   c0,0.44,0.11,0.79,0.31,1.06c0.35,0.45,1.01,0.53,1.46,0.18c0.07-0.05,0.13-0.12,0.18-0.18c0.2-0.27,0.3-0.65,0.3-1.14   c0-0.44-0.1-0.79-0.31-1.06c-0.19-0.26-0.5-0.41-0.83-0.41c-0.32-0.01-0.62,0.14-0.81,0.4   C555.65,823.06,555.55,823.44,555.55,823.94L555.55,823.94z"/>
	<path class="st49" d="M559.86,821.9l0.02,0.5c0.28-0.37,0.72-0.58,1.19-0.57c0.84,0,1.26,0.47,1.27,1.42v2.63h-0.68v-2.63   c0-0.29-0.07-0.5-0.2-0.64s-0.33-0.21-0.6-0.21c-0.21,0-0.41,0.06-0.58,0.18c-0.17,0.12-0.3,0.28-0.39,0.46v2.83h-0.68v-3.97   H559.86z"/>
</g>
</svg>
